<?xml version="1.0" encoding="UTF-8"?>
<svg id="_Слой_3" data-name="Слой 3" xmlns="http://www.w3.org/2000/svg" viewBox="0 0 115.71 174.08">
  <defs>
    <style>
      .cls-1 {
        fill: #f4b0be;
      }

      .cls-2 {
        fill: #f9d4db;
      }

      .cls-3 {
        fill: #e9f4ce;
      }

      .cls-4 {
        fill: #935d6f;
      }

      .cls-5 {
        fill: #3b7a69;
      }

      .cls-6 {
        fill: #603748;
      }

      .cls-7 {
        fill: #76ada0;
      }

      .cls-8 {
        fill: #7a4b5d;
      }
    </style>
  </defs>
  <g>
    <path class="cls-2" d="m114.3,103.66c-.13-.82-.75-1.73-1.59-1.95-.5-.13-1.15-.16-1.6.17-.89.04-1.42,1-1.54,1.72-.05.29-.04.6.02.89.1.48.37.92.72,1.25.66.62,1.77.76,2.59.42.98-.41,1.56-1.45,1.39-2.5Z"/>
    <path class="cls-2" d="m74.01,3.13c-.2-1.26-1.15-2.65-2.44-2.99-.77-.2-1.76-.25-2.45.26-1.37.07-2.17,1.53-2.36,2.64-.07.44-.06.92.03,1.36.16.73.57,1.41,1.11,1.92,1.01.95,2.72,1.17,3.97.65,1.5-.63,2.39-2.22,2.13-3.83Z"/>
    <path class="cls-8" d="m5.94,96.8c-.14-.9-.82-1.89-1.74-2.13-.55-.14-1.25-.18-1.74.18-.98.05-1.55,1.09-1.68,1.88-.05.31-.04.66.02.97.11.52.4,1,.79,1.37.72.68,1.94.83,2.83.46,1.07-.45,1.7-1.58,1.52-2.73Z"/>
    <path class="cls-8" d="m82.85,9.72c-.11-.67-.61-1.4-1.29-1.58-.41-.11-.93-.13-1.3.14-.73.04-1.15.81-1.25,1.4-.04.23-.03.49.02.72.08.39.3.75.59,1.02.54.5,1.44.62,2.11.34.8-.33,1.27-1.18,1.13-2.03Z"/>
    <path class="cls-1" d="m5.2,21.09c-.14-.9-.82-1.89-1.74-2.13-.55-.14-1.25-.18-1.74.18-.98.05-1.55,1.09-1.68,1.88-.05.31-.04.66.02.97.11.52.4,1,.79,1.37.72.68,1.94.83,2.83.46,1.07-.45,1.7-1.58,1.52-2.73Z"/>
  </g>
  <g>
    <path class="cls-5" d="m60.63,87.43c-.64,13.37,3.3,29.71-1.89,52.34-3.42,14.88-10.73,27.83-14.81,33.83-.94,1.39-3.92-.43-3.08-2.31,3.45-7.72,9.87-18.5,14.01-32.65,3.05-10.41,3.95-24.48,4.65-51.61"/>
    <g>
      <path class="cls-7" d="m67.5,124.17c11.06-9.29,34.53-10.41,34.47-10.28,0,0-10.6,21.72-18.95,26.67s-18.2,6.87-27.91,7.24c.57-4.11,4.22-16.77,12.39-23.62Z"/>
      <path class="cls-5" d="m101.97,113.89s-9.56,20.32-18.95,26.67c-9.57,6.46-18.2,6.87-27.91,7.24.57-4.11,46.92-34.03,46.86-33.91Z"/>
      <path class="cls-3" d="m58.79,143.7c.61-1.08,23.47-18.72,33.65-23.48l-13.4,10.26-20.25,13.23Z"/>
    </g>
    <g>
      <path class="cls-7" d="m47.15,139.12c-4.09-13.13-22.31-26.09-22.33-25.95,0,0-2.68,22.84,1.48,31.1,4.15,8.26,11.05,14.86,18.63,20.14,1.66-3.59,5.23-15.6,2.22-25.29Z"/>
      <path class="cls-5" d="m24.83,113.16s-2.79,21.19,1.48,31.1c4.34,10.09,11.05,14.86,18.63,20.14,1.66-3.59-20.09-51.37-20.11-51.24Z"/>
      <path class="cls-3" d="m44.09,159.24c.06-1.18-9.18-27.05-14.89-36.11l5.46,15.1,9.43,21Z"/>
    </g>
    <g>
      <path class="cls-1" d="m101.64,91.3c10.44,1.73,16.18-15.08,13.35-24.26-.85-2.76-2.31-5.33-2.84-8.17-1.17-6.26,2.12-13.61-1.53-18.87-2.33-3.36-6.89-4.81-9.99-7.59-4.7-4.22-6.1-11.49-12.25-13.88-5.65-2.19-12.82,1.08-16.85,5.79-4.03,4.71-5.78,10.52-7.95,16.05-1.3,3.31-2.79,6.66-2.86,10.09-.11,5.4,3.34,10.06,7.13,13.96,0,0,22.45,25,33.79,26.88Z"/>
      <path class="cls-2" d="m52.72,78.03c4.65,9.94,7.33,20.72,7.89,31.81.1,2,.26,4.25,2.04,5.39,1.03.66,2.41.82,3.74.96,4.71.49,9.43.98,14.14,1.46,1.4.15,2.91.27,4.25-.31,2.61-1.14,3.04-4.07,4.05-6.4,2.4-5.51,9.74-9.3,11.19-14.96.87-3.42-.69-6.72-2.86-9.37-2.96-3.61-7.02-6.39-11.04-9.13-3.36-2.29-6.71-4.58-10.07-6.88-.89-.61-1.82-1.23-2.97-1.42-1.07-.18-2.22.04-3.33.3-5.72,1.38-11.13,4.27-15.28,8.16"/>
      <path class="cls-1" d="m65.67,107.94c-2.5,5.55-16.37,6.33-21.62,3.29-3.54-2.05-6.47-5.72-10.69-5.63-4.04.08-8.4,3.67-11.68,1.55-1.85-1.19-2.17-3.6-2.8-5.65-1.19-3.86-3.94-7.03-6.42-10.24-2.48-3.22-4.83-6.79-5.03-10.84-.2-4.05,2.49-8.61,6.73-9.35l38.07-5.66,7.41,8.51s9.66,25.99,6.03,34.02Z"/>
      <path class="cls-2" d="m61.39,58.25c-1.99,5.15-6.26,6.91-11.61,8.98-5.36,2.07-11.46,2.93-17.17,3.37-7.19.55-14.74,2.95-21.18.15-6.44-2.8-11.19-10.02-8.5-16.46,1.35-3.22,4.24-5.66,6.13-8.64,3.41-5.38,3.51-12.43,8.09-16.98,6.33-6.29,17.17-4.27,25.53-7.7,2.87-1.18,5.47-3.02,8.47-3.8,6.97-1.8,17.3,3.42,18.85,9.99,1.93,8.18-5.68,23.52-8.6,31.09Z"/>
      <g>
        <path class="cls-4" d="m39.82,64.52c-12.7,0-25.74-4.32-35.62-12.18-.14-.11-.16-.31-.05-.44.11-.14.31-.16.44-.05,13.15,10.48,32,14.58,48.01,10.47.17-.04.34.06.39.23.04.17-.06.34-.23.38-4.17,1.07-8.54,1.59-12.95,1.59Z"/>
        <path class="cls-4" d="m52.51,65.32c-.06,0-.12-.02-.17-.05-4.3-2.68-8.75-5.44-12.67-8.83-1.1-.95-2.17-1.97-3.21-2.95-.87-.82-1.76-1.66-2.67-2.47-6.23-5.53-13.74-9.74-21.71-12.18-.17-.05-.26-.23-.21-.39.05-.17.23-.26.39-.21,8.06,2.46,15.65,6.71,21.95,12.31.91.81,1.81,1.66,2.68,2.48,1.03.98,2.1,1.98,3.19,2.93,3.88,3.35,8.31,6.11,12.59,8.77.15.09.19.29.1.44-.06.1-.16.15-.27.15Z"/>
        <path class="cls-4" d="m57.06,62.72c-.11,0-.22-.06-.28-.16-7.69-13.62-16.4-29.05-30.58-38.09-.15-.09-.19-.29-.1-.44.09-.15.29-.19.44-.1,14.31,9.13,23.06,24.63,30.79,38.32.09.15.03.34-.12.43-.05.03-.1.04-.16.04Z"/>
        <path class="cls-4" d="m58.43,56.82c-.16,0-.29-.12-.31-.28-1.19-9.08-2.54-19.37-7.29-27.94-.51-.92-1.07-1.84-1.61-2.73-1.25-2.05-2.54-4.17-3.34-6.48-.06-.17.03-.35.2-.4.16-.06.34.03.4.2.78,2.25,2.05,4.34,3.28,6.36.54.89,1.11,1.82,1.62,2.75,4.81,8.68,6.17,19.03,7.36,28.17.02.17-.1.33-.27.35-.01,0-.03,0-.04,0Z"/>
        <path class="cls-4" d="m62.72,57.85s-.06,0-.09-.01c-.17-.05-.26-.23-.21-.4,1.3-4.14,1.57-8.56,1.84-12.82.05-.88.11-1.74.17-2.59.53-7.92.99-14.76-1.37-22.59-.05-.17.05-.34.21-.39.17-.05.34.04.39.21,2.39,7.94,1.93,14.83,1.39,22.81-.06.85-.11,1.71-.17,2.59-.27,4.3-.55,8.75-1.87,12.97-.04.13-.17.22-.3.22Z"/>
        <path class="cls-4" d="m66.29,59.57c-.08,0-.17-.01-.25-.04-.17-.05-.26-.23-.21-.39.05-.17.22-.26.39-.21.06.02.12.01.17-.02.18-.1.37-.44.46-.82.5-2.07.97-4.19,1.42-6.25,1.42-6.46,2.89-13.13,5.69-19.24,2.95-6.46,6-10.86,10.19-14.71.13-.12.33-.11.45.02.12.13.11.33-.02.45-4.12,3.79-7.13,8.13-10.04,14.51-2.76,6.05-4.23,12.69-5.64,19.12-.45,2.06-.92,4.18-1.43,6.26-.05.21-.26.93-.77,1.22-.13.08-.28.12-.42.12Z"/>
        <path class="cls-4" d="m69.02,61.63c-.05,0-.1-.01-.15-.04-.15-.08-.21-.28-.13-.43,3.56-6.51,7.96-12.53,13.09-17.88,1.11-1.15,6.38-5.72,10.61-9.4,2.47-2.14,4.61-3.99,5.09-4.46.12-.12.33-.11.45.01.12.13.12.33-.01.45-.49.47-2.53,2.24-5.11,4.48-4.23,3.66-9.49,8.22-10.57,9.36-5.09,5.31-9.46,11.29-12.99,17.75-.06.11-.17.16-.28.16Z"/>
        <path class="cls-4" d="m70.02,66.41c-.08,0-.16-.03-.22-.09-.13-.12-.13-.32,0-.45,3.34-3.45,7.02-6.46,10.8-9.48,3.67-2.94,7.3-5.76,11.25-7.98,6.24-3.51,12.03-5.12,18.74-6.98l.41-.11c.17-.05.34.05.39.22.05.17-.05.34-.22.39l-.41.11c-6.94,1.93-12.42,3.45-18.59,6.92-3.91,2.2-7.51,5-11.17,7.92-3.77,3.02-7.43,6-10.74,9.43-.06.06-.14.1-.23.1Z"/>
        <path class="cls-4" d="m72.75,64.77c-.31,0-.61,0-.92-.01-.17,0-.31-.15-.31-.33,0-.17.14-.3.33-.31,4.73.14,9.46-.84,14.03-1.78l11.32-2.34c4.01-.83,10.72-2.21,14.39-3.37.17-.05.34.04.4.21.05.17-.04.34-.21.4-3.7,1.16-10.43,2.55-14.45,3.38l-11.31,2.34c-4.31.89-8.76,1.81-13.25,1.81Z"/>
        <path class="cls-4" d="m115.03,77.27s-.01,0-.02,0c-12.82-.8-26.03-2.21-35.86-7.09-.95-.47-1.99-.86-2.99-1.24-1.75-.66-3.57-1.34-5.05-2.49-.14-.11-.16-.31-.05-.44s.31-.16.44-.06c1.41,1.1,3.17,1.76,4.88,2.4,1.02.38,2.07.78,3.05,1.26,9.72,4.83,22.86,6.23,35.62,7.03.17.01.31.16.3.34-.01.17-.15.3-.32.3Z"/>
        <path class="cls-4" d="m95.02,102.75c-.1,0-.21-.05-.27-.15-6.95-10.91-15.36-23.21-27.09-31.18-.14-.1-.18-.29-.08-.44.1-.15.29-.18.44-.08,11.83,8.03,20.28,20.4,27.27,31.36.09.15.05.34-.1.44-.05.03-.11.05-.17.05Z"/>
        <path class="cls-4" d="m84.66,117.41c-.13,0-.25-.08-.3-.2-5.78-15.29-12.08-31.27-19.91-43.89-.09-.15-.05-.34.1-.44.15-.09.34-.05.44.1,7.86,12.67,14.17,28.69,19.96,44,.06.16-.02.35-.18.41-.04.01-.07.02-.11.02Z"/>
        <path class="cls-4" d="m72.87,116.77c-.14,0-.27-.1-.31-.24l-1.51-6.15c-3.04-12.4-5.92-24.12-8.71-37.27-.04-.17.07-.34.24-.38.17-.04.34.07.37.24,2.79,13.14,5.66,24.85,8.71,37.25l1.51,6.15c.04.17-.06.34-.23.38-.03,0-.05,0-.08,0Z"/>
        <path class="cls-4" d="m55.14,113.04s-.04,0-.07,0c-.17-.04-.28-.2-.24-.37,2.73-12.98,1.46-25.29-.47-40.04-.02-.16.08-.31.24-.35.16-.04.32.04.37.19l.26.7c.05.14,0,.29-.11.37,1.87,14.37,3.02,26.47.33,39.25-.03.15-.16.25-.31.25Z"/>
        <path class="cls-4" d="m39.5,108.07s-.07,0-.11-.02c-.16-.06-.25-.24-.19-.4,3.79-10.58,8.11-21.11,12.3-31.28.83-2.01,1.65-4.01,2.47-6.02.07-.16.25-.24.41-.17.16.07.24.25.17.41-.82,2.01-1.65,4.02-2.47,6.03-4.18,10.17-8.51,20.68-12.29,31.25-.05.13-.17.21-.3.21Z"/>
        <path class="cls-4" d="m19.99,104.76c-.07,0-.14-.02-.2-.07-.13-.11-.15-.31-.04-.44,9.22-11.16,20.4-22.6,33.23-33.99.13-.12.33-.11.45.03.12.13.1.33-.03.45-12.8,11.37-23.96,22.78-33.16,33.92-.06.08-.15.11-.24.11Z"/>
        <path class="cls-4" d="m8.18,84.35c-.12,0-.24-.08-.29-.2-.06-.16.01-.35.18-.41,16.1-6.44,31.7-11.27,49.1-15.2.17-.04.34.07.38.24.04.17-.07.34-.24.38-17.37,3.93-32.94,8.75-49.01,15.17-.04.02-.08.02-.12.02Z"/>
      </g>
      <path class="cls-8" d="m72.08,64.63s0,0,0,0c.24-1.03-.47-1.86-1.58-1.87.13-.51-.03-1.11-.39-1.43-.17-.15-.41-.28-.66-.36.06-.11.12-.21.18-.32.69-1.22-1.08-2.59-2.36-1.83,0,0-.01,0-.02.01,0-.01-.02-.03-.03-.04.04-.17.07-.33.11-.46.18-.71-.06-1.41-.83-1.67-.33-.11-.71-.11-1.06-.02-.03-.17-.05-.34-.08-.51-.22-1.22-1.95-1.74-2.96-.71-.5-.32-1.21-.37-1.87.15-.12.09-.22.19-.32.3-.16-.08-.32-.15-.5-.19-.91-.21-1.67.48-1.79,1.24,0,.03,0,.05,0,.08-.28-.22-.55-.44-.84-.65-1.27-.92-2.74.68-2.37,1.81.02.05.04.1.05.16-.42.1-.81.33-1.04.67-.05.07-.09.14-.13.21-.92.25-1.69,1.02-1.62,1.84-.15.01-.3.02-.45.04-1.48.2-2.36,1.9-1.42,2.84-.15.26-.24.55-.25.88-.02.95.25,1.44.82,1.94,0,0-.02.02-.02.02-.52.55-.3,1.41.21,1.8.44.33,1.07.38,1.61.16-.04.31-.09.62-.17.94-.24.95.65,1.71,1.64,1.43,0,0,0,0,0,.01.03.4.07.8.13,1.2.13.81.96,1.37,1.86,1.24.36.62,1.29.96,2.08.74.3.24.69.39,1.15.37.5-.02,1.03-.1,1.56-.23.95.83,2.75.53,3.2-.93.02-.07.04-.15.06-.22.05.1.1.2.15.3.46,1.02,2.03.89,2.87.23.7-.56,1.05-1.11,1.17-1.66.25,0,.51-.07.77-.21.57-.31.92-.92.81-1.48.6-.12,1.16-.32,1.66-.65.53-.35.67-1.05.6-1.56-.05-.34-.12-.62-.2-.89.54-.16,1.03-.55,1.17-1.05.19-.67-.13-1.45-.85-1.67Zm-20.6.64c.15.18,0,.27,0,0h0Z"/>
      <path class="cls-6" d="m66.61,64.88s0,0,0,0c.12-.52-.24-.94-.79-.94.07-.26-.02-.56-.2-.72-.09-.08-.2-.14-.33-.18.03-.05.06-.11.09-.16.35-.61-.54-1.3-1.19-.92,0,0,0,0-.01,0,0,0,0-.01-.01-.02.02-.09.04-.17.05-.23.09-.36-.03-.71-.42-.84-.17-.06-.35-.06-.53-.01-.01-.09-.03-.17-.04-.26-.11-.61-.98-.87-1.48-.35-.25-.16-.61-.18-.94.07-.06.04-.11.1-.16.15-.08-.04-.16-.07-.25-.1-.46-.11-.84.24-.9.62,0,.01,0,.03,0,.04-.14-.11-.28-.22-.42-.32-.64-.46-1.38.34-1.19.91,0,.03.02.05.03.08-.21.05-.41.17-.52.34-.02.03-.04.07-.06.1-.46.13-.85.51-.82.92-.07,0-.15,0-.22.02-.74.1-1.18.95-.71,1.43-.08.13-.12.28-.13.44,0,.48.13.72.41.97,0,0,0,0-.01.01-.26.28-.15.71.1.9.22.17.54.19.81.08-.02.16-.04.31-.08.47-.12.48.32.86.82.72,0,0,0,0,0,0,.01.2.04.4.07.6.06.41.48.69.93.62.18.31.65.48,1.04.37.15.12.35.2.58.19.25-.01.52-.05.78-.12.48.42,1.38.27,1.61-.47.01-.04.02-.07.03-.11.02.05.05.1.07.15.23.51,1.02.45,1.44.11.35-.28.53-.56.59-.83.12,0,.25-.03.38-.11.28-.15.46-.46.4-.74.3-.06.58-.16.83-.33.27-.18.34-.53.3-.78-.03-.17-.06-.31-.1-.45.27-.08.51-.28.59-.53.1-.34-.06-.73-.43-.84Zm-10.34.32c.07.09,0,.13,0,0h0Z"/>
      <g>
        <path class="cls-8" d="m55.44,52.36c-.17-.31-.54-.58-.9-.55-.22.02-.48.09-.61.29-.35.14-.42.59-.37.9.02.12.07.24.13.35.11.17.27.31.46.4.35.15.81.06,1.09-.19.33-.3.42-.79.21-1.18Z"/>
        <path class="cls-8" d="m60.5,46.46c-.17-.31-.54-.58-.9-.55-.22.02-.48.09-.61.29-.35.14-.42.59-.37.9.02.12.07.24.13.35.11.17.27.31.46.4.35.15.81.06,1.09-.19.33-.3.42-.79.21-1.18Z"/>
        <path class="cls-8" d="m47.41,67.06c-.17-.31-.54-.58-.9-.55-.22.02-.48.09-.61.29-.35.14-.42.59-.37.9.02.12.07.24.13.35.11.17.27.31.46.4.35.15.81.06,1.09-.19.33-.3.42-.79.21-1.18Z"/>
        <path class="cls-8" d="m69.15,52.16c-.17-.31-.54-.58-.9-.55-.22.02-.48.09-.61.29-.35.14-.42.59-.37.9.02.12.07.24.13.35.11.17.27.31.46.4.35.15.81.06,1.09-.19.33-.3.42-.79.21-1.18Z"/>
        <path class="cls-8" d="m41.8,60.3c-.17-.31-.54-.58-.9-.55-.22.02-.48.09-.61.29-.35.14-.42.59-.37.9.02.12.07.24.13.35.11.17.27.31.46.4.35.15.81.06,1.09-.19.33-.3.42-.79.21-1.18Z"/>
        <path class="cls-8" d="m51.39,57.75c-.17-.31-.54-.58-.9-.55-.22.02-.48.09-.61.29-.35.14-.42.59-.37.9.02.12.07.24.13.35.11.17.27.31.46.4.35.15.81.06,1.09-.19.33-.3.42-.79.21-1.18Z"/>
        <path class="cls-8" d="m59.5,77.41c-.17-.31-.54-.58-.9-.55-.22.02-.48.09-.61.29-.35.14-.42.59-.37.9.02.12.07.24.13.35.11.17.27.31.46.4.35.15.81.06,1.09-.19.33-.3.42-.79.21-1.18Z"/>
        <path class="cls-8" d="m71.75,77.5c-.17-.31-.54-.58-.9-.55-.22.02-.48.09-.61.29-.35.14-.42.59-.37.9.02.12.07.24.13.35.11.17.27.31.46.4.35.15.81.06,1.09-.19.33-.3.42-.79.21-1.18Z"/>
        <path class="cls-8" d="m75.71,71.61c-.17-.31-.54-.58-.9-.55-.22.02-.48.09-.61.29-.35.14-.42.59-.37.9.02.12.07.24.13.35.11.17.27.31.46.4.35.15.81.06,1.09-.19.33-.3.42-.79.21-1.18Z"/>
        <path class="cls-8" d="m75.86,57.02c-.17-.31-.54-.58-.9-.55-.22.02-.48.09-.61.29-.35.14-.42.59-.37.9.02.12.07.24.13.35.11.17.27.31.46.4.35.15.81.06,1.09-.19.33-.3.42-.79.21-1.18Z"/>
        <path class="cls-8" d="m47.89,78.98c-.17-.31-.54-.58-.9-.55-.22.02-.48.09-.61.29-.35.14-.42.59-.37.9.02.12.07.24.13.35.11.17.27.31.46.4.35.15.81.06,1.09-.19.33-.3.42-.79.21-1.18Z"/>
      </g>
    </g>
  </g>
</svg>