<?xml version="1.0" encoding="UTF-8"?>
<svg id="_Слой_2" data-name="Слой 2" xmlns="http://www.w3.org/2000/svg" viewBox="0 0 71.47 71.88">
  <defs>
    <style>
      .cls-1 {
        fill: #f3e2e7;
      }

      .cls-2 {
        fill: #f85c96;
      }

      .cls-3 {
        fill: #f85b95;
      }

      .cls-4 {
        fill: #f95e91;
      }

      .cls-5 {
        fill: #f96199;
      }

      .cls-6 {
        fill: #f95b91;
      }

      .cls-7 {
        fill: #f95b7e;
      }

      .cls-8 {
        fill: #f95d91;
      }

      .cls-9 {
        fill: #f95d97;
      }

      .cls-10 {
        fill: #f95d96;
      }

      .cls-11 {
        fill: #f95d80;
      }

      .cls-12 {
        fill: #f95d93;
      }

      .cls-13 {
        fill: #f95c93;
      }

      .cls-14 {
        fill: #f95c91;
      }

      .cls-15 {
        fill: #f64988;
      }

      .cls-16 {
        fill: #fb6a8b;
      }

      .cls-17 {
        fill: #fb688e;
      }

      .cls-18 {
        fill: #fb6888;
      }

      .cls-19 {
        fill: #fb6889;
      }

      .cls-20 {
        fill: #fb7195;
      }

      .cls-21 {
        fill: #fb70a2;
      }

      .cls-22 {
        fill: #fb73a4;
      }

      .cls-23 {
        fill: #fb6485;
      }

      .cls-24 {
        fill: #fb698c;
      }

      .cls-25 {
        fill: #fb698f;
      }

      .cls-26 {
        fill: #fb6984;
      }

      .cls-27 {
        fill: #fb658d;
      }

      .cls-28 {
        fill: #f95a8f;
      }

      .cls-29 {
        fill: #f95475;
      }

      .cls-30 {
        fill: #fa6185;
      }

      .cls-31 {
        fill: #fa6090;
      }

      .cls-32 {
        fill: #fa618d;
      }

      .cls-33 {
        fill: #fa6396;
      }

      .cls-34 {
        fill: #fa637d;
      }

      .cls-35 {
        fill: #fa6394;
      }

      .cls-36 {
        fill: #fa6285;
      }

      .cls-37 {
        fill: #fa6c94;
      }

      .cls-38 {
        fill: #fa6397;
      }

      .cls-39 {
        fill: #fa5e8d;
      }

      .cls-40 {
        fill: #fa5f8a;
      }

      .cls-41 {
        fill: #fa669b;
      }

      .cls-42 {
        fill: #fa6698;
      }

      .cls-43 {
        fill: #fa6a98;
      }

      .cls-44 {
        fill: #fa689d;
      }

      .cls-45 {
        fill: #f75089;
      }

      .cls-46 {
        fill: #f65d96;
      }

      .cls-47 {
        fill: #f85489;
      }

      .cls-48 {
        fill: #f85491;
      }

      .cls-49 {
        fill: #f8548f;
      }

      .cls-50 {
        fill: #f85288;
      }

      .cls-51 {
        fill: #f8528f;
      }

      .cls-52 {
        fill: #f85290;
      }

      .cls-53 {
        fill: #f85390;
      }

      .cls-54 {
        fill: #f85382;
      }

      .cls-55 {
        fill: #f85692;
      }

      .cls-56 {
        fill: #f85591;
      }

      .cls-57 {
        fill: #f54185;
      }

      .cls-58 {
        fill: #f54386;
      }

      .cls-59 {
        fill: #f5e4ea;
      }

      .cls-60 {
        fill: #e971a1;
      }

      .cls-61 {
        fill: #fff;
      }

      .cls-62 {
        fill: #f7528a;
      }

      .cls-63 {
        fill: #f75390;
      }

      .cls-64 {
        fill: #f65c95;
      }

      .cls-65 {
        fill: #ee679c;
      }

      .cls-66 {
        fill: #fefefe;
      }

      .cls-67 {
        fill: #fc789e;
      }

      .cls-68 {
        fill: #fc708c;
      }

      .cls-69 {
        fill: #e69db7;
      }

      .cls-70 {
        fill: #feb351;
      }

      .cls-71 {
        fill: #feae58;
      }

      .cls-72 {
        fill: #feae57;
      }

      .cls-73 {
        fill: #feaf52;
      }

      .cls-74 {
        fill: #feaf54;
      }

      .cls-75 {
        fill: #feb949;
      }

      .cls-76 {
        fill: #feb94b;
      }

      .cls-77 {
        fill: #feb74c;
      }

      .cls-78 {
        fill: #feb74d;
      }

      .cls-79 {
        fill: #feb74a;
      }

      .cls-80 {
        fill: #deb8c5;
      }

      .cls-81 {
        fill: #e07ca8;
      }

      .cls-82 {
        fill: #e1b2c1;
      }
    </style>
  </defs>
  <g id="OBJECTS">
    <g>
      <g>
        <path class="cls-66" d="m66.92,8.11c4.39,5.49,5.1,11.8,4.21,18.51-.81,6.05-3.81,11.09-7.21,15.95-4.33,6.18-9.36,11.76-14.66,17.11-3.37,3.4-6.73,6.81-10.06,10.25-2.34,2.42-3.09,2.53-5.98.64-.09-.3.09-.44.31-.56,1.42.08,2.5-.57,3.36-1.63.79-.97,1.82-1.71,2.63-2.66.97-1.02,2.14-1.85,2.99-3.01.85-1.14,1.91-2.09,2.92-3.09,2.87-2.87,5.77-5.7,8.36-8.83.35-.43.87-.68,1.19-1.14.65-1.07,1.51-1.96,2.43-2.78.2-.24.38-.51.56-.77.7-.74,1.04-1.76,1.88-2.39.89-.97,1.51-2.12,2.24-3.2.04-.16.12-.31.24-.43.44-.26.62-.7.81-1.13.88-1.19,1.53-2.52,2.32-3.76,1.1-1.56,1.71-3.33,2.25-5.14.79-1.83.95-3.8,1.32-5.73.27-1.4.2-2.84.41-4.24.11-.73-.49-1.35-.29-2.08.06-.55.22-1.1-.11-1.62-.29-.68-.44-1.4-.66-2.1-.03-.11-.06-.21-.07-.32.03-.5-.34-.92-.28-1.42-.02-.45-.32-.77-.53-1.13-.24-.31-.16-.77-.48-1.04-.28-.58-.69-1.12-.59-1.83.09-.24.2-.46.52-.41Z"/>
        <path class="cls-42" d="m5.63,37.81C2.22,32.27-.21,26.41.01,19.76c.11-3.25,1.07-6.29,2.79-9.07.7-.26,1.34-.54,1.92-1.08.82-.77,1.89-.43,2.48.65-.05.79-.64,1.3-.99,1.93-.29.51-.46,1.07-.68,1.61-1.98,5.38-1.43,10.59.93,15.72.87,1.9,1.85,3.74,2.86,5.57.28.51.64,1.01.41,1.66-.02.03-.03.09-.06.1-1.31.5-2.72.56-4.05.97Z"/>
        <path class="cls-5" d="m66.72,8.57c.16.59.73.99.75,1.65-.42,1.35-.57,1.44-1.93,1.02-.23-.07-.45-.14-.69-.18-.44-.03-.72-.31-.91-.67-.55-1.06-1.35-1.93-2.03-2.89-1.07-1.25-2.58-1.91-3.88-2.86-.07-.14-.1-.3-.06-.46.11-.39.17-.8-.22-1.07-.42-.29-.82-.15-1.19.14-.44.35-.93.58-1.49.67-3.22-.87-6.25.06-9.28.96-.49.15-.98.3-1.48.44-.56.08-1.01.54-1.62.49-.48-.14-.93-.33-1.45-.36-.57-.02-.99-.3-.7-1,4.86-4.92,13.77-5.91,19.89-2.2,1.11.68,2.21,1.38,3.15,2.3.29.3.53.65.86.92.89.93,1.85,1.81,2.25,3.1Z"/>
        <path class="cls-24" d="m16.81,54.19c-2.65-2.95-4.72-6.32-7-9.55-.48-.67-.89-1.4-1.33-2.1.21-.38.58-.46.91-.32,1.17.48,2.21.39,3.1-.58.07-.08.22-.07.34-.09,1.13.12,1.44,1.16,1.94,1.89,1.33,1.94,2.81,3.77,4.1,5.75.37.57.97,1.08.72,1.9-.61.65-1.4.32-2.06.24-.86-.1-.68-1.19-1.06-1.6.21.08.18.4.28.7.21.65.59,1.04,1.4,1.01.68-.03,1.38-.22,2.07,0,.49.26.72.66.66,1.22-.12.43-.44.61-.85.69-.27.05-.53.09-.7.35-.67,1.04-1.56.97-2.52.48Z"/>
        <path class="cls-32" d="m29.36,67.25c-2.82-2.22-5.35-4.74-7.76-7.39-.59-.59-.86-1.38-1.29-2.07-.51-.81.19-1.99,1.11-1.87.48.06.18-.19.19-.25.09-.55.39-.84.95-.83.59.12.91.57,1.24,1.02,1.67,2.28,3.47,4.46,5.28,6.64.58.7,1.42,1.13,1.88,1.94.1.59.55.92.95,1.3.36.35.79.69.57,1.31-.96,1.28-2.04.81-3.13.21Z"/>
        <path class="cls-4" d="m6.89,10.26c-.59-.64-1.9-.61-1.86-.28.14.99-.61.55-.86.8-.47.49-.92.21-1.36-.1C5.56,5.73,9.74,2.66,15.19,1.24c.39.34,1.28-.11,1.29.83,0,.3.19.05.27.04.93-.12,1.37.34,1.48,1.22-.01.12-.06.23-.12.33-.54.43-1.26.47-1.85.55-1.81.25-3.28,1.17-4.81,2.02-1.43,1.01-2.69,2.18-3.7,3.61-.21.3-.41.6-.86.42Z"/>
        <path class="cls-42" d="m40.57,4.45c.49.85,1.64.31,2.19,1.04.11.63-.49.69-.8.84-1.6.79-2.93,1.93-4.28,3.05-1.42,1.17-1.41,1.19-2.8.03-.14-.11-.21-.28-.3-.43-1.45-1.82-3.43-2.82-5.57-3.56-.7-.25-1.39-.53-2.11-.74-.32-.09-.61-.18-.65-.57.58-.92,1.66-.89,2.51-1.23.45-.17.71-.35.91-.72,2.8.66,5.03,2.3,7.12,4.16.28.27.49.65.96.63,1-.77,1.71-1.85,2.81-2.5Z"/>
        <path class="cls-12" d="m29.67,2.16c.09.51.72.45.98.94-.52.18-.87.67-1.58.3-.88-.45-.71.18-.46.89-.82-.62-1.54-.34-2.27-.23-.35.47-.79.34-1.26.22-1.43-.36-2.87-.66-4.37-.55-.14.01-.28.03-.43.05-.74-.14-1.61.36-2.23-.41l-.03-.05c.03-.85-.7-1.71.02-2.56,4.01-.63,7.87.01,11.63,1.41Z"/>
        <path class="cls-31" d="m12.86,41.81c-1.18,1.5-1.75,1.63-3.7.86-.21-.08-.45-.08-.68-.12-1.08-1.5-2.03-3.07-2.85-4.73.26-.34.86-.28.86-.96,0-.61.59-.52,1-.38.68.23,1.38.27,2.08.34.52-.16.81.18,1.08.53.79,1.04,1.4,2.19,2.14,3.26.25.36.38.79.08,1.21Z"/>
        <path class="cls-33" d="m29.36,67.25c1.02.21,1.99-.06,2.96-.28.56-.33,1.13-.07,1.69-.04.35.18.65.21.81-.26.11-.3.35-.49.63-.63,1.09-.37,2.2-.55,3.35-.41.39.05.8-.03,1.03.4-1.17,1.22-2.32,2.47-3.51,3.66-.73.73-1.62,1.07-2.66.64-.38-.17-.83-.16-1.18-.42-.25-.21-.47-.45-.8-.55-.78-.7-1.56-1.4-2.33-2.1Z"/>
        <path class="cls-37" d="m22.49,55.12c-1.16.71-.15.85.48,1.24-.73.02-.91.65-1.4.83-.37-.21-.06-.43-.06-.63,0-.17-.03-.33-.21-.37-.19-.04-.26.1-.33.25-.24.52-.54.96-.05,1.6.38.49.46,1.2.68,1.82-1.78-1.74-3.39-3.61-4.79-5.67.51,0,.92-.35,1.49-.27.64.1.6-.5.55-.92-.08-.76.31-.81.68-.36.42.51.76.2,1.14.09,1.17.12,2.03,1.25,1.81,2.39Z"/>
        <path class="cls-15" d="m18.04.74c1.12.86-.02,1.71-.02,2.56-.71-1.24-1.62-.74-2.53-.15-.04-.52.4-.44.51-.69.09-.22.28-.4.1-.64-.13-.18-.3-.22-.52-.11-.73.37-.27-.3-.4-.46.95-.17,1.9-.33,2.85-.5Z"/>
        <path class="cls-59" d="m66.72,8.57c-.79-1.03-1.58-2.07-2.37-3.1-.07-.06-.09-.12-.07-.18.02-.06.04-.1.06-.1,1.06.8,1.93,1.76,2.58,2.92-.07.15-.13.3-.2.46Z"/>
        <path class="cls-1" d="m32.51,69.77c.38.19.86.19,1.15.56-.15.08-.3.16-.45.24-.23-.18-.46-.35-.69-.53-.06-.06-.08-.12-.06-.18.02-.06.04-.09.05-.09Z"/>
        <path class="cls-80" d="m37.75,6.95c-.7.37-.72-.3-.96-.63.32.21.64.42.96.63Z"/>
        <path class="cls-69" d="m64.34,5.19c0,.09,0,.19.01.28-.37-.21-.62-.51-.75-.92.31.14.56.34.74.64Z"/>
        <path class="cls-82" d="m32.51,69.77c0,.09,0,.18,0,.27-.28-.23-.55-.46-.83-.68.34,0,.61.14.82.41Z"/>
        <path class="cls-40" d="m55.3,49.88c-2.72,3.38-5.8,6.43-8.84,9.51-1.21,1.23-2.46,2.44-3.69,3.65-.5-.06-.75.36-1.09.6-.83.58-2.95.64-3.82.09-.26-.78.25-1.26.69-1.76,2.12-2.44,4.42-4.72,6.48-7.21.78-.94,1.65-1.8,2.38-2.78.28-.38.61-.73,1.13-.81.51.02,1.02.08,1.52-.02.54-.1.9-.32.87-1.01-.05-1.18.29-1.4,1.61-1.22.83-.46,1.63-.73,2.39.14.21.25.35.5.36.82Z"/>
        <path class="cls-63" d="m60.1,44c-.62.79-1.24,1.57-1.85,2.36-.78.11-1.42-.42-2.17-.54-.42-.07-.91-.24-1.39-.28-.12-.03-.23-.08-.34-.13-.36-.19-.54-.5-.57-.9-.09-.49.24-.81.48-1.16,1.96-2.89,4.1-5.66,5.87-8.68.65-1.11,1.08-2.37,2.06-3.27.16-.12.29-.28.37-.47.08-.16.21-.27.37-.35,1.36-.37,1.69-.13,2.2,1.6-.07.43-.32.77-.74.82-.79.08-.78.61-.63,1.11.39,1.26-.3,2.14-1.05,2.93-.35.37-.48.47-.17.97.45.73.79,1.57.17,2.42-.05.08-.11.15-.16.23-.68.65-1.35.72-1.93,0,.8.87.85,1.28-.02,2.07-.41.38-.3.86-.49,1.27Z"/>
        <path class="cls-3" d="m64.8,10.71c.2,0,.43-.05.58.04.88.49,1.54.22,2.09-.53.15.34.29.67.44,1.01.22.36-.18.97.48,1.14.28.51.34,1.05.28,1.62-.08.08-.17.13-.28.17.11-.04.2-.09.28-.17.36.68.77,1.35.7,2.17-.07.31-.15.6,0,.92.18.38.04.75-.31.91-.58.26-.59.66-.65,1.22-.15,1.47-1.27,2.45-2.07,3.59-.18.26-.57.23-.84-.06-.52-.92-.11-1.87.01-2.76.35-2.55-.12-5-.61-7.47-.05-.39.14-.83-.18-1.18-.08-.22-.11-.43.08-.61Z"/>
        <path class="cls-81" d="m69.62,17.79c.47,2.91.19,5.8-.39,8.66-.27,1.34-.49,2.71-1.07,3.97-.86-.51-1.57-1.28-2.54-1.62-.71-.38-.2-1.18-.59-1.7-.58-.78.33-1.06.63-1.54.48-.77.98-1.52,1.72-2.08.36-.27.41-.65.24-1.06-.15-.38-.25-.83-.02-1.14.77-1.01,1.2-2.19,1.72-3.32.04-.1.19-.13.3-.16Z"/>
        <path class="cls-65" d="m69.62,17.79c-.08,1.31-.46,2.5-1.43,3.45-.37.36-.23.72.03,1.04.33.41.33.94,0,1.18-1.2.84-1.76,2.26-2.96,3.22,1.03.36.21,1.24.51,1.85.33.24.41.64.62.96.55.84.28,1.37-.6,1.68-1.35-.28-2.02-1.4-1.5-2.62.3-.7.27-1.34-.09-1.99-.13-.72.38-1.28.51-1.94.25-.65-.06-1.64,1.06-1.78.85-.97,1.22-2.27,2.17-3.17.14-.14.16-.24-.1-.42-.59-.41.06-.91,0-1.38,1.13,0,1.05-1.09,1.52-1.69.29.51.22,1.08.25,1.63Z"/>
        <path class="cls-47" d="m54.61,45.14c.08,0,.16,0,.24,0,.9.11,1.5.94,2.44,1.02.21.02.8.35.42.89-.73,1-1.5,1.97-2.4,2.83-.61-.31-1.19-.66-1.7-1.18-.32.41.29,1.08-.43,1.2-.49.08-.68-.28-.7-.72-.01-.05-.02-.11-.04-.16-.07-.19-.06-.39-.1-.58-.25-1.4.82-2.95,2.27-3.29Z"/>
        <path class="cls-46" d="m62.7,40.42c.05-1.38-.66-2.35-1.74-3.16.45-.35,1.03-.21,1.49-.62.89-.8.9-1.72.71-2.73-.27-1.42-.17-1.53,1.26-1.36.12.01.26-.16.39-.24.05,0,.11.02.16.03,1.12.25.82,1.03.65,1.75.01.11,0,.22-.03.33-.18,1.03-.96,1.76-1.37,2.69-.32.72-.6,1.43-.8,2.18-.15.44-.37.84-.73,1.14Z"/>
        <path class="cls-54" d="m37.94,63.64c.56.21,1.06-.04,1.6-.14.85-.15,1.76.05,2.51-.59.22-.19.57-.37.72.14-.89,1.08-1.88,2.06-2.94,2.98-1.38.46-2.89-.2-4.24.48-.32-1.1.39-1.58,1.21-1.98.4-.03.89.05.78-.62.06-.17.16-.28.35-.26Z"/>
        <path class="cls-60" d="m65.78,30.89c.22-.32,1.2-.59-.08-.93-.57-.15.23-.93.08-1.44,1.04.33,2.32.36,2.38,1.9-.56,1.79-1.38,3.45-2.35,5.05-.52-.27-.74-.68-.51-1.26h0c.79-.96.69-2.06.47-3.16,0-.05,0-.11,0-.16Z"/>
        <path class="cls-2" d="m60.1,44c-.12-.2-.31-.4-.33-.61-.03-.36-.7-.54-.24-1.02.36-.37.72-.6,1.19-.03.1-1.11-.26-1.73-1.28-1.91.38-.31.72-.41.91-.74.05-.09.66-.65.61.34-.06,1.11.95.64,1.59.62-.76,1.15-1.5,2.32-2.44,3.34Z"/>
        <path class="cls-65" d="m65.3,34.22c.17.42.34.84.51,1.26-.67,1.34-1.51,2.59-2.37,3.81-.07-.74-.11-1.37.14-2.2.37-1.19,1.49-1.74,1.72-2.87Z"/>
        <path class="cls-8" d="m57.7,47.05c-.87-.76-2.03-1.08-2.86-1.91.41-.26.8-.07,1.1.16.36.28.63.32,1.06.14.65-.27,1.41-.51.96.74,0,.02.18.12.28.18-.18.23-.36.46-.54.69Z"/>
        <path class="cls-5" d="m68.39,12.37c-.22.06-.46.08-.66.17-.4.18-.67.11-.81-.32-.15-.44.15-.53.48-.58.25-.04.41-.19.51-.41.35.3.41.72.48,1.14Z"/>
        <path class="cls-74" d="m22.49,55.12c-.6-.8-1.21-1.59-1.81-2.39-.18-.36-.38-.71-.72-.95-.14-.25-.47-.38-.48-.71-2.2-3.09-4.41-6.18-6.61-9.26-1.1-1.67-2.2-3.33-3.3-5-1.48-2.79-3.05-5.52-4.23-8.46-1.8-4.48-2.08-9.03-.73-13.67.12-.41.38-.77.58-1.15.24-.04.51-.11.55-.36.22-1.2,1.06-2.07,1.7-3,.67-.96,1.35-2,2.38-2.67.54-.35.98-.76,1.26-1.34,2.48-1.38,5.13-2.23,7.98-2.39.48-.03.93-.09,1.33-.39.09,0,.18,0,.27,0,.76.52,1.69.48,2.5.5,1.94.06,3.76.71,5.5,1.3,2.07.7,4.32,1.46,5.74,3.41.12.16.37.11.55.2.07.07.13.15.2.22.43.96,1.38,1.9.15,2.95-.34.15-.62.04-.85-.22-.31-.98-1.1-1.61-1.75-2.33-.54-.61-1.31-.86-2.15-.74-.34-.04-.61-.23-.87-.44-.2-.16-.44-.18-.7-.17-.79-.31-1.58-.59-2.39-.81-.98-.1-1.94-.3-2.89-.54-2.55-.66-5.07-.37-7.59.11-1.94.63-3.68,1.66-5.1,3.09-3.59,3.6-5.14,7.94-4.27,13.03.25,1.48.63,2.92,1.05,4.36.7,1.67,1.43,3.33,2.24,4.94.14.23.34.43.47.67.12.36.31.68.54.98,1.52,2.35,3.13,4.65,4.47,7.12.12.24.29.44.43.67.07.34.34.52.59.72,1.53,2.08,2.98,4.2,4.47,6.31.32.77,1.23,1.12,1.41,1.99.76.92,1.54,1.83,2.16,2.85,1.57,2.01,3.13,4.04,4.7,6.05,1.2,1.53,2.74,2.73,3.88,4.3.25.35.63.61.67,1.09,0,.65.63,1.51-.31,1.86-.8.3-1.19-.46-1.61-1.04-.34-.47-.82-.83-1.32-1.15-2.65-2.22-4.63-5.02-6.71-7.74-.45-.59-.92-1.18-1.38-1.77Z"/>
        <path class="cls-78" d="m11.15,6.19c.07.38.26.8-.2,1.06-.95.55-1.65,1.33-2.38,2.16-.98,1.11-1.96,2.16-2.34,3.62-.16.6-.3,1.18-1.04.49.24-1.26,1.24-2.12,1.7-3.26,1.3-1.56,2.47-3.25,4.26-4.33.06.06.08.11.06.17-.02.06-.04.09-.06.09Z"/>
        <path class="cls-72" d="m65.77,22.82c-.23.65-.46,1.29-.68,1.94-.44.04-.89.46-1.31-.03-.37-.44-.17-.92.04-1.33.55-1.05.11-2.17.32-3.23.22-.56.23-1.12.18-1.73-.07-.88-.47-1.71-.19-2.66.13-.42-.14-1-.75-1.15-.3-.25-.43-.58-.39-.97.47-1,.22-1.79-.5-2.63-.53-.62-.81-1.46-1.25-2.18.03-.72.25-1.33.98-1.64,1.15.95,1.85,2.24,2.6,3.5.08.16.17.32.25.48.34.23.3.58.3.92.97,3.18,1.13,6.39.5,9.65-.07.34-.05.7-.08,1.06Z"/>
        <path class="cls-70" d="m44.14,4.99c3.6-1.53,7.27-2.47,11.19-1.46.24-.11.44-.1.57.16.02.11.02.23-.02.33-.66,1.12-1.65.68-2.57.54-1.78-.27-3.44.01-4.95,1.03-.25.17-.1.53-.27.75-.57.76-1.52.68-2.27,1.03-1.59.44-2.85,1.6-4.44,2.04-.45-.07-.88-.2-.91-.75-.03-.56.36-.86.83-1.03.6-.21,1.1-.46.97-1.23.13-.54.62-.61,1.03-.77.36-.13.74-.21.82-.67Z"/>
        <path class="cls-76" d="m44.14,4.99c.59.42.32.66-.19.83-.5.17-1.06.18-1.45.61.01.46-.28.81-.62.93-1.21.43-1.89,1.49-2.8,2.27-.12.1.05.04-.09.07-1.7.4-1.87,1.56-1.5,2.99-.57.82-1.3,1.09-2.24.64-.4-.42-.62-.85-.17-1.37.39-.98.31-1.96.05-2.95.78,1.29,1.47.93,2.35.01,1.49-1.54,3.34-2.59,5.26-3.53.46-.17.92-.33,1.38-.5Z"/>
        <path class="cls-70" d="m62.2,7.21c-.23.53-.47,1.06-.7,1.59-.11.41-.4.57-.8.59-.26-.08-.38-.27-.41-.52q.44-1.44-1.04-1.94c-.11-.04-.29-.05-.31-.14-.37-1.21-1.55-1.04-2.4-1.4-.76-.32-1.03-.79-.74-1.56l.04-.05c.41-.42.87-.41,1.35-.13.28.09.54.22.79.39.13.12.16.3.23.46,1.57.57,2.83,1.59,4.01,2.72Z"/>
        <path class="cls-21" d="m57.23,4.02c-.47-.08-.93-.17-1.4-.25-.17-.08-.33-.16-.5-.24.59-.16.61-.94,1.27-1.08.63-.14,1.28-.32,1.73.2.49.58.26,1.25-.14,1.84-.09-.06-.17-.11-.26-.17-.22-.13-.35-.46-.7-.29Z"/>
        <path class="cls-37" d="m19.47,51.07c.27.16.41.41.48.71-.65.17-1.45-.24-1.95.52-.08.13-.38.16-.4.03-.1-.72-1.08-.99-1.09-1.37-.03-1.07-1.17-1.19-1.39-2.05.65-.17,1.15.15,1.36.63.6,1.36,1.62,1.74,2.99,1.52Z"/>
        <path class="cls-79" d="m30.58,64.63c.8.03,1.49.42,1.77,1.09.23.54.62.88.97.78.67-.2-.01-.69.03-1.06.01-.11.04-.23.06-.34.87-.94,1.45-2.11,2.36-3.01.34-.33.64-.7,1.19-.6,1.12.6.51,1.43.08,1.96-.89,1.13-2.1,2.01-2.37,3.56-.05.3-.43.43-.75.51-.54-.18-1.08-.36-1.61-.54-.29-1-1.45-1.36-1.74-2.35Z"/>
        <path class="cls-76" d="m11.15,6.19c0-.09,0-.17,0-.26,2.07-1.48,4.47-2.08,6.9-2.57.78,0,1.57.01,2.35.02.09.85,0,1.24-1.1.9-1.61-.5-3.1.57-4.67.7-1.27.11-2.13,1.35-3.48,1.21Z"/>
        <path class="cls-76" d="m34.95,8.78c-.3.12-.61.26-.86-.07-1.02-1.4-2.61-1.78-4.05-2.53-1.56-.81-3.31-.67-4.7-1.41-1.22-.64-2.42-.26-3.57-.67-.46-.17-.91-.22-1.11-.73,1.95-.24,3.78.47,5.67.69,1.21.43,2.43.86,3.64,1.29,1.96.71,3.62,1.85,4.98,3.43Z"/>
        <path class="cls-42" d="m25.88,2.12q1.04.02,1.6,1.04c-.69-.3-1.25-.51-1.6-1.04Z"/>
        <path class="cls-73" d="m33.93,67.51c.13-.24.39-.49.37-.71-.14-1.66,1.21-2.38,2.06-3.43.36-.44,1.08-.85.45-1.6-.08-1.04.56-1.71,1.26-2.3.43-.36.81-.73,1.07-1.22,2.13-1.72,3.45-4.16,5.38-6.06.45-.42.67-1.12,1.43-1.17.87.1,1.34-.21,1.17-1.16-.04-.11-.06-.22-.06-.33.11-.54.49-.85.92-1.13.26-.09.37-.28.39-.54.5-.72.83-1.54,1.43-2.19.81-.95,1.41-2.07,2.33-2.94,1.67-2.29,3.18-4.68,4.95-6.9.2-.25.35-.52.49-.8.08-.2.2-.39.27-.6.62-1.34,1.43-2.56,2.14-3.84.12-.24.26-.46.34-.72.17-.68.65-1.23.83-1.91.07-.21.08-.44.23-.62.54-1.21.79-2.52,1.36-3.71.35-.59.35-1.26.49-1.91.29-.7-.03-1.54.47-2.2.74-.34.59.47.9.68-.19,1.3.3,2.67-.52,3.9-.19.28-.03.57.39.37.33-.16.52-.05.62.28.03.67-.39,1.22-.5,1.85-.06,1.63-.42,3.14-1.75,4.25-.04.09-.08.18-.13.27.11.26-.11.34-.24.48-2.36,4.55-5.29,8.72-8.34,12.82-.13.57-.35,1.05-.79,1.49-.79.8-1.35,1.8-1.89,2.78-.52.45-.9,1.01-1.28,1.58-.2.46-.68.63-1,.96-.16.13-.35.21-.54.3-1.71,1.95-3.41,3.9-5.12,5.84-1.84,2.1-3.88,4.02-5.55,6.26-.08.08-.15.17-.23.25.02.5-.1.89-.7.91-.61.45-1.01,1.08-1.42,1.69-.6.27-.58,1.54-1.67,1.01Z"/>
        <path class="cls-47" d="m49.84,50.11c.26-.66.65-1.21,1.22-1.64.41-.2.79-.64,1.28-.34.4.25.3.67.13,1.04h0c-.64.12-1.79-.12-.75,1.16.07.09-.17,1.34-1.1,1.32-.67-.02-1.33-.08-2-.12.12-.15.23-.3.35-.45.34-.28.93-.34.87-.97Z"/>
        <path class="cls-64" d="m62.84,30.86c.58-1.42,1.17-2.83,1.75-4.25.55.43.63,1.07.34,1.56-.76,1.28-.03,2,.85,2.72h0c.13.77.03,1.39-.95,1.43,0,0,0,0,0,0-.32-.95-.78-1.7-1.98-1.45Z"/>
        <path class="cls-8" d="m52.48,49.18c.06-1.29-.88-.6-1.41-.71,1.02-1.35,2.04-2.7,3.06-4.04.05.31.21.55.48.71-.24.26-.46.53-.72.77-.76.7-1.64,1.33-1.15,2.6.08.21.12.57-.27.67Z"/>
        <path class="cls-64" d="m62.47,31.61c.08-.16.16-.32.24-.48.29.22.76.11.98.52-.44.57-.82-.06-1.22-.04Z"/>
        <path class="cls-5" d="m68.67,13.98c-.95.91-1.16-.12-1.78-.63.9-.21,1.13.76,1.78.64,0,0,0,0,0,0Z"/>
        <path class="cls-5" d="m65.35,12.11c-.1-.31-.2-.61-.3-.92.76.04.78.1.3.92Z"/>
        <path class="cls-65" d="m64.83,32.32c.32-.47.63-.95.95-1.42,1.06.35.89,1.3.66,1.94-.17.48-.48,1.15-1.13,1.38-.39-.58.13-1.38-.47-1.9Z"/>
        <path class="cls-40" d="m37.02,64.81c.19-.34.34-.7.7-.91.24.06.69,0,.47.42-.22.42-.51.98-1.17.49Z"/>
        <path class="cls-26" d="m20.64,48.95c-1.67-2.02-3.17-4.17-4.51-6.42-.19-.21.27-.88-.49-.7l-.41-.5c.21-.59.2-1.22.31-1.83.13-.68.43-1.26,1.01-1.49.83-.31.67-.79.44-1.36-.31-.55-.53-1.17.07-1.59.66-.46,1.09-1.64,2.26-.9.13.08.29.1.45.13,1.35.27,1.57.63,1.19,1.89-.08.27-.5.54-.13.83.35.27.82.43,1.21.14.43-.32.94-.37,1.39-.59.52-.26,1-.63.51-1.28-.46-.61-1.07-1.16-.12-1.85.83-.61,1.13-.55,2.01.42.1.03.2.08.3.13.25.14.52.17.79.1.78-.18,1.11.29,1.19.93.07.57.22.87.85,1.01.8.17,1.24.77,1.2,1.63-.01.28.02.54.11.8.07.19.15.43.36.44,1.01.05,1.8.64,2.67,1.03.65.3,1.28.3,1.89-.13.79-.55,1.58-.18,2.37.01.16.08.28.19.37.35.12,1.41-.51,2.44-1.88,3.08-.7.28-1.03-.16-1.33-.66-.08-.05-.01-.32-.24-.12-.67,1.03-.83,1.06-1.8.41-.33-.22-.69-.32-1.06-.42-.14.31.16.52.14.79-.5,1.86-2.05,1.4-3.36,1.54.96.12,2.01-.43,2.85.39.16.32.21.62-.06.86.2-.05.18-.33.33-.48.23-.13.45-.08.66.05.32.29.66.57.54,1.08-.04.12-.1.21-.19.3-.26.18-.56.27-.92.39.11.25.39.18.54.31.41.37.9.74.63,1.37-.26.6-.82.55-1.32.36-.68-.27-1.27.19-1.81.21.26.09.53-.13.83-.25.36-.14.71,0,.95.27.26.31.23.7-.01.98-.68.8-1.29,1.7-2.4,1.98-2.11-.13-3.94-1.11-5.8-1.98-.11-.05-.21-.12-.29-.2-.61-.74-1.32-1.32-2.31-1.47Z"/>
        <path class="cls-43" d="m9.79,32.54c-.98-1.58-1.69-3.29-2.39-5,.14-.41.46-.85.37-1.22-.37-1.48.15-2.53,1.53-3.32-.97-.02-1.35-.22-1.32-.65.04-.56.43-.85.93-.92.54-.07,1.12-.2,1.62.1.44.26.74.08,1-.14-.63.32-.9.04-.82-.65.04-.32.24-.59-.33-.35-.35.15-.71,0-.9-.37-.17-.35-.15-.75.11-1,.65-.6.69-1.72,1.74-1.99.3-.08.29-.44.37-.7.14-.42.24-.94.63-1.1.84-.34,1.06-1.07,1.36-1.78.36-.19.66-.1.89.22.05.07.08.17.18.2-.02-.05-.04-.1-.07-.18.08-1.98,1.1-2.68,2.94-2.04.34.12.64.32.95.47.09.03.18.06.27.09.89-.05,1.62.28,2.05,1.06.28.51.67.57,1.15.55.29.14.48.39.74.58.6.21.52,1.26,1.39,1.15.47.13.78.65,1.35.54.11.03.22.07.31.13.71.53.83,1.28.74,2.08-.06.54-.39.95-.91,1.13-.46.16-.87.17-1.24-.31-.22-.29-.38.37-.69.25-.24,0-.45-.29-.65-.18-1.13.61-1.24-.06-1.18-.7.11,1.39-.31,1.71-1.73,1.05-.53-.38-1.17-.18-1.74-.35-.33-.12-.7-.35-1-.07-.87.8-2.13,1.27-2.34,2.66-.01.07-.11.15-.1.21.45,2.07-1.33,2.29-2.51,2.95-.28.16-.19.21-.14.38.14.53.08,1.01-.37,1.39-.09.06-.2.09-.31.1-.1,0-.2-.04-.29-.09-.05-.03-.08-.09-.15-.09,0,0,.03.02.08.08.15.32.29.64.56.87.09.14.15.3.16.47-.03.63-.61.76-.98,1.07-.08.08-.16.15-.25.21-.28.16-.56.38-.9.12-.07-.04-.13-.08-.2-.12.1.08.21.13.31.21.37.42.56.94.76,1.44.38.95-.09,1.61-1.02,1.56Z"/>
        <path class="cls-35" d="m13.76,13.55c.58.92.38,1.49-.67,1.9-.64.25-.89.92-.84,1.61.02.26.09.59-.2.53-1.55-.31-1.16,1.6-2.18,1.88-.15.04-.16.38.05.49.1.06.32.03.42-.05.18-.14.27-.42.46-.52.47-.24,1.02-.13,1.28.27.26.4-.23.57-.52.76-.26.17-.57.3-.44.74.49-.11.77-.68,1.33-.63-.32,1.05-1.15,1.54-2.17,1.42-.66-.07-1.4-.28-2.12.47h2.19c.06.1.13.21.19.31-1.33-.06-.95,1.65-2.26,1.76-.39.03-.05.94.07,1.14.78,1.25-.15,1.52-.95,1.9-1.82-4.58-2.21-9.25.03-13.73,1.76-3.53,4.41-6.31,8.47-7.33.26.43.32.93.95,1.18.76.31.86,1.21.86,1.94,0,.77-.64.88-1.28.88-.17,0-.34.1-.37.24-.25,1.37-1.52,1.9-2.3,2.83Z"/>
        <path class="cls-14" d="m13.76,13.55c-.42-.41-.58-.77.14-1.03.8-.28,1.49-.54,1.37-1.7-.05-.46.67-1,1.04-1.51.47.07,0,1.07.73.74.65-.3-.06-.63-.06-.94.01-.73-.24-1.14-.98-1.38-.87-.27-.12-.82-.1-1.25,3.2-1.19,6.39-.77,9.59.02.45.11.89.29,1.33.44.17.18.41.23.62.34.36.18.78.35.66.85-.12.52-.53.63-1.02.55.59.08,1.23-.13,1.76.36.29.27.66.15.98-.09.49-.37.99-.12,1.46.07.37.15.51.49.44.88-.06.37-1.56,1.54-1.96,1.51-2.21-.16-4.19.62-6.16,1.46-.39.17-.84.26-1.16.57-.03.03-.06.07-.1.1-.07.17-.11.36-.26.49-.59.27-1.16.36-1.51-.34-.45-.89-1.15-1.09-2.05-.85h0c-1.09-.99-2.32-1.16-2.96-.48-.39.42,0,1.12-.6,1.43-.09.22-.21.37-.48.24-.24-.16-.48-.32-.71-.48Z"/>
        <path class="cls-11" d="m20.64,48.95c.22-.19.94.35.72-.49-.08-.29.07-.47.33-.52.27-.05.43.11.52.37.63,1.81,2.12,2.45,3.81,2.89,1,.26,1.96.7,2.93,1.06q.16.86-.51,1.25c1.58-.14,1.7,1.12,2.08,2.12.52,1.15.43,2.38.54,3.67.44-.35.91-.46,1.49-.28.71.23,1.37,0,1.94-.52.26-.24.49-.52.81-.69.27-.15.57-.36.86-.05.27.3.29.66.04.97-.34.43-.81.76-.79,1.4,0-.52.28-.87.61-1.2.35-.35.72-.62,1.25-.52.51.1.76-.38,1.16-.5.51-.15,1.17-.45,1.01.59-.88,1.09-1.75,2.17-2.63,3.26-.93.81-1.55,1.88-2.32,2.83-.25.31-.43.98-1.08.5-1.29-1.94-3.15-3.37-4.58-5.2-1.6-2.04-3.26-4.02-4.68-6.2.84-1.21.79-1.25-.42-2.03-.53-.34-1.08-.59-1.66-.83-.49-.62-1.12-1.13-1.43-1.88Z"/>
        <path class="cls-17" d="m9.96,29.46c.24-.16.48-.32.71-.47.42.57.91.7,1.66.7,1.08,0,2.13,0,3.2-.18.73-.13,1.22.4,1.53,1.04,1.17.03,1.39,1.23,2.17,1.75.12.13.18.29.19.47-.22.89-.87,1.18-1.68,1.11-.56-.05-1.32-.21-1.34.48-.02.65-.23,1.63.79,1.96.16.05.28.14.36.28.72.96.64,1.11-.59,1.82-.36.21-1.35.4-.51,1.21-.63.41-.27,1.53-1.22,1.72-1.52-2.46-3.31-4.74-4.59-7.35.21-.51-.25-.65-.5-.9-.12-.18-.24-.36-.35-.55.64-.5,1.05-.99.18-1.68-.53-.42.19-.93-.01-1.4,0,0,0,0,0,0Z"/>
        <path class="cls-33" d="m21.84,13.08c.96-.57,2.02-.88,3.08-1.22,1.18-.39,2.39-.65,3.58-.99.27-.08.54-.19.8-.05,1.04.57,1.24-.72,1.96-.89.17-.04.09-.37-.08-.5-.26-.2-.67-.42-.86-.17-.87,1.13-1.43.28-2.34.01-.91-.27-1.45-1.04-2.49-1.08.63-.81,1.16-.06,1.67-.12.15-.02.32.44.55.12.22-.32-.12-.48-.31-.66-.2-.19-.71-.08-.58-.59.8.23,1.59.45,2.39.68.25.02.53-.05.68.26.25.15.5.3.76.45,1.4.29,2.49.97,3,2.38-.34.59-1.11.7-1.41,1.36-.16.35-.63.06-1.02-.04.27.69.6,1.31-.13,1.78-.68.43-1.32.06-1.7-.39-.77-.92-1.74-1.15-2.73-.8-.88.32-1.97.38-2.54,1.31-.42.68-1.37.4-1.78,1.06-.23-.28-.24-.61-.24-.95-.17-.29-.43-.57-.24-.95h0Z"/>
        <path class="cls-29" d="m22.08,50.83c.73-.33,1.33-.35,1.97.35.43.47,1.08.68,1.38,1.36.36.82.16,1.12-.69,1.13-.19,0-.39.02-.58.03-.82-.86-1.52-1.82-2.08-2.87Z"/>
        <path class="cls-76" d="m33.49,10.7c-.67-1.13-1.82-1.7-2.86-2.38.33-.27.69-.16,1,0,1.32.73,2.55,1.55,2.96,3.14-.09.08-.2.13-.32.14-.41-.17-.95-.24-.78-.91Z"/>
        <path class="cls-17" d="m15.65,41.83c.6-.25.85-1.19,1.81-.92-.23.75-1.19.85-1.32,1.61-.27-.16-.4-.41-.49-.7Z"/>
        <path class="cls-33" d="m34.43,11.47c.06,0,.11,0,.17,0,.17.16.33.33.5.49-.02.41.02.79.34,1.09-.16.68-.65.92-1.24.72-.84-.28-.42-.95-.32-1.49.11-.32.24-.62.55-.8Z"/>
        <path class="cls-43" d="m10.14,33.09c.57.04,1.14.08,1.71.12.03.06.05.12.08.18-.43.2-.86.4-1.29.6-.33-.21-.45-.53-.5-.9Z"/>
        <path class="cls-76" d="m29.88,7.87c-.26,0-.49-.06-.68-.26.22-.18.48-.24.75-.23.15,0,.36,0,.35.19,0,.23-.26.23-.43.29Z"/>
        <path class="cls-5" d="m63.36,13.59c.04.32.05.66.27.93.87.82.4,1.87.5,2.83-.07.25-.37.53-.47.39-.56-.74-1.88-.48-2.1-1.59-.08-.42-.4-.55-.66-.78-.35-.71-.64-1.41-.14-2.19.28-.44-.11-.61-.4-.81-.39-.26-.63-.6-.45-1.09.17-.45.59-.47.98-.44.5.05,1.01-.13,1.5.1.81.7,1.05,1.61.98,2.64Z"/>
        <path class="cls-77" d="m63.84,17.59c.16-1.04-.15-2.05-.2-3.08.06-.25,0-.6.43-.55.21.02.4.17.37.38-.25,1.96.75,3.89.16,5.86-.4-.08-.48-.45-.68-.72-.59-.61-.57-1.24-.08-1.9Z"/>
        <path class="cls-76" d="m63.36,13.59c-.44-.78-.55-1.72-1.17-2.4-.23-.22-.57-.28-.79-.52-.3-.43-.82-.76-.61-1.41.11-.35.38-.44.71-.45,1,1,1.48,2.32,2.09,3.56.18.37.08.85-.23,1.22Z"/>
        <path class="cls-41" d="m34.19,12.37q.62.32-.2.9c.58.32.98-.22,1.45-.22.73.08,1.37-.07,1.85-.67.77-1.8,2.04-3,4.02-3.34,1.37-.82,2.82-1.47,4.29-2.08.16.12.34.19.51.29.43.25.76.61.75,1.12-.02.55-.56.58-.94.76-.32.15-.66.26-1.01.31-.19.16-.62-.04-.6.41.32.28.71.48,1.09.46,1.23-.07,1.47.81,1.8,1.68.33.88-.17,1.44-.68,2-.47.51-1.01.78-1.67.29-.19-.14-.36-.26-.63-.24-1.59.14-1.59.13-1.96-1.25,1.01,1.29-.74,1.72-1.29,2.62-.26.43-.7.21-1.04-.04q-.73-.52-1.47-.2c.52-.36,1.06.08,1.52.36.55.34.81.22,1.16-.24.38-.51.69-1.45,1.46-.23.31.49.94-.09,1.43-.09.11,0,.22.04.32.09.36,1.17,1.57,1.79,1.91,2.99.12.42.26.79.88.68.61-.11.76-.45.73-.99,0-.12.02-.23.04-.35.8-.84,1.87-.98,2.93-1.1.38-.05.79.06,1.18.05,1.1-.01,1.7.61,1.89,1.59.09.44.21.73.61.89.12.1.21.25.36.29.42.11.92.16.87.75-.04.59-.47.88-1,1.03-.15.04-.33.01-.46.08-.55.29-1.51-.07-1.68.73-.18.85,1,2.51,1.79,2.66.42.08.73.25,1.04.5.23.19.33.44.26.74-.19.79-2,1.68-2.51,1.11-.86-.96-1.71-.84-2.7-.45-.7-.15-.76.84-1.4.8-.86-.24-1.78-.28-2.55-.79-.16-.07-.3-.06-.37.15-.04.1-.09.19-.16.27-1.05.85-2.14.45-3.2.04-.39-.15-.75-.42-1.09-.67-.17-.45-.6-.91-.19-1.4.37-.45.83-.3,1.26-.02.14.09.31.05.45,0,1.43-.52,3.07-.33,4.35-1.33.23-.16.49-.25.74-.35.95-.37,1.39,0,1.42,1.36.22-1.64-.97-2.31-1.56-3.28-.72-.47-1.44-.09-2.16-.02-1.44.13-2.81.03-3.73-1.32q-.28-.96,1.38-1.09c-.18.08-.37.17-.56.08-.56-.28-.97-.4-1.18.45-.13.52-.79.35-1.23.44-.39-.09-.74-.37-1.18-.23-.1,0-.21.01-.31.01-.93.17-1.86-.37-2.79,0-.11,0-.22,0-.33,0-.85-.14-1.4-.55-1.42-1.49,0-.33-.19-.58-.47-.75-.04-.11-.04-.21.03-.31-.09.13-.09.25.04.36.67.58.39,1.57.95,2.22.13.15-.12.45-.36.53-.38.14-.77.22-1.12-.08-.35-.3-.58-.76-1.1-.84-.14-.11-.23-.25-.27-.43-.12-.44.74-1.04-.23-1.34-.44-.26-1.02-.28-1.32-.76-.14-.47.11-.87.49-.93,1.58-.23,1.9-1.23,1.74-2.6.18-.34.35-.69.8-.73.14.01.25.06.35.16Z"/>
        <path class="cls-5" d="m48.2,17.59c.01.49.61,1.14.19,1.39-.6.36-1.41.45-2.16.27-.38-.09-.36-.34-.4-.69-.07-.67-.13-1.4-1.03-1.69-.76-.24-.26-1.15-.63-1.65-.22.09-.46.14-.65.27-.82.57-1.3.34-1.54-.87-.49.82-1.88,1.18-.23,2.19-.55-.11-.99.01-1.29-.48-.44-.73-1.17-.76-1.92-.61-.27.05-.53.17-.8.19-.3.02-.69.11-.77-.33-.08-.43.21-.65.58-.78,1.03-.36,2.08-.54,3.18-.44.14.48-.47.47-.54.8.06.2.28.28.37.2.5-.49,1-.99,1.43-1.53.29-.36-.09-.45-.34-.55-1.03-.43-.63-.88,0-1.31.19-.13.43-.18.64-.29.23-.12.45-.49.69-.16.12.17.1.57-.01.77-.29.5-.41.95.07,1.38.54.48.84-.15,1.24-.31.33-.13.65-.27.96-.4.3.31-.02.45-.1.64-.1.21-.1.4.11.5.12.05.36.05.44-.03.41-.42.86-.83,1.15-1.33.25-.43-.94-1.93-1.47-1.96-.32-.01-.63-.06-.94-.02-.73.08-.51-.39-.47-.76.43-.21.75-.51.95-.95.83.03.24-.49.28-.79.44.03.78.46,1.36.19-.66-.31-.7-.95-.92-1.49.79-.27,1.57-.53,2.36-.8.29-.66.9-.74,1.5-.87.6.2,1.16-.14,1.74-.16,2.29-.11,4.44.39,6.46,1.47.29.71.83,1.02,1.59.99.15.09.26.21.33.37.15.39-.04.74-.15,1.14.24-.3.48-.54.87-.46.1.04.19.11.25.2.03.17.05.36.25.43.31.41.62.82.93,1.23-.56.61-2.05.82-2.46.22-.51-.75-1.35-.74-2.01-1.1-.62-.33-.43.41-.49.72-.19,1.14-.57,1.3-1.53.62-.39-.41.09-1.48-1.03-1.34-1.11-.29-1.7.48-2.48,1.36.87-.7,1.32-1.73,2.47-1.32.42.06.83.31.79.7-.11.99.47,1.05,1.17,1.05.37-.03.51-.3.69-.57.3-.46.79-.64,1.3-.75.33-.07.62.07.82.36.17.25.18.51.04.78-.31.59-2.68,2.4-3.35,2.53-.16.24.1.41.14.62.17,1.09-.14,1.46-1.23,1.45-.59,0-1.16-.14-1.76-.17-1.2-.06-2.31.19-3.4.63-.11,0-.22-.03-.33-.06-.86-.42-1.77-.71-2.74-.72-.42,0-.17.19-.03.31.19.49.93.64.83,1.3.23.44.86,0,1.06.48Z"/>
        <path class="cls-72" d="m59.41,8.03l-.24-.19c-.41-.33-1.21-.07-1.33-.85-.26-.81-1.12-.64-1.67-.92-1.87-.94-3.89-1.1-5.95-.7-.3.06-.62.13-.82.42-.48.12-.97.25-1.45.37-.77-.69-.79-.99.38-1.19,1.01-.17,1.87-.92,3.01-.86.78.04,1.54-.05,2.33.17.72.2,1.49.04,2.13-.45.37,1.05,1.12,1.4,2.21,1.33.76-.05,1.43.21,1.04,1.31,1.08-.35,1.85.21,2.32.94.47.72-.31,1.08-.84,1.42-.07-.01-.14-.02-.2-.03-.46-.08-.81-.28-.93-.76Z"/>
        <path class="cls-71" d="m41.31,9.04c-1.49.93-2.61,2.31-4.02,3.34-.64-.8-1-1.62-.16-2.51.13-.14.31-.4.42-.37,1.31.29,1.71-.96,2.49-1.51.8-.56,1.58-1.13,2.46-1.56.91.46.74.91-.03,1.31-.42.22-.89.34-1.3.57-.59.33-.41.58.14.73Z"/>
        <path class="cls-5" d="m57.23,4.02c.05-.14.12-.4.16-.39.39.05.38.44.54.69-.23-.1-.47-.2-.7-.29Z"/>
        <path class="cls-39" d="m50.16,45.89c-.48.71-.97,1.41-1.45,2.12-.05.1-.12.19-.22.25-1.15.07-1.23-.02-.97-1.19-.62.36-1.23.5-1.85.18-.35-.18-.67-.05-1.02.02-.91.18-1.21-.13-.88-.97.21-.54.07-1.08.22-1.62.13-.47-.23-.6-.63-.62-.11-.02-.22-.05-.31-.11-.34-.3-.74-.53-.81-1.07-.18-1.49-.21-1.5-1.66-1.27-.17-.04-.3-.14-.44-.24-.45-.42-1.32-.5-1.16-1.42-.73-.09-.57-.82-.88-1.21-.69-.54-1.28-1.19-2.29-1.24-.57-.03-.82-.68-1-1.2-.14-.4-.21-.83-.44-1.21-.13-.34-.31-.65-.72-.71-.53-.07-.84-.39-1.05-.85-.03-.07-.08-.18-.13-.19-1.82-.4-1.36-2.36-2.2-3.23-1.32-1.37-1.04-2.29,0-3.44.07-.07.05-.23.09-.34.69-.87.92-2.06,2.09-2.59.84-.38,1.5-.74,2.33.06.49.47,1.21.7,1.68,1.25.48.27,1.02.5.9,1.2-.11.62-.52.9-1.14.96-.59.05-.06.37-.09.56.14.68-.36,1.17-.58,1.73-.15.38-.07.57.21.78.18.28.32.56.65.75.49.29.78.75.49,1.36-.13.15-.3.21-.49.22.14.05.28.07.43.08.36-.01.54.32.81.46.1.04.19.09.29.13.84.32,1.64.67,1.41,1.83-.08.41.28.57.58.62.79.15,1.19.71,1.53,1.35.16.22.38.38.55.59.35.35-.23,1.1.55,1.27,1.07-.58,1.42-.52,2.2.42.4.49.82.94,1.4,1.23.44.22.7.61.95,1.03.57.97,1.46,1.67,2.35,2.29.81.56.62,1.28.73,1.99Z"/>
        <path class="cls-36" d="m39.45,58.51c-.06-.1-.17-.28-.18-.28-.91.53-1.87.8-2.93.9-.39.04-.75.73-.16,1.11.51.33.34.49.01.76-.35.3-.81.62-1.09.11-.28-.51-.72-1.18.06-1.75.45-.33.84-.72.82-1.44-.88.43-1.43,1.2-2.3,1.49-.51.17-.95.77-1.49,0-.17-.25-.54-.15-.57.25-.02.36.05.75-.48.78-.23.01-.61.03-.58-.24.05-.48-.79-.83-.15-1.35.11-.09.27-.32.24-.35-.64-.81-.03-1.84-.51-2.67.88-1.42,2.58-2.24,4-2.01.88.14,1.49.43,1.41,1.47-.02.19.18.34.27.51.21.28-.03.8.69,1.01-.36-.42-.59-.72-.74-1.07-.39-.69-.06-1.2.47-1.59.53-.38,1.11-.57,1.63.05-.05,1.37.57,1.9,2.18,1.74-.37-.27-.75-.32-1.03-.3-1.09.05-1.33-.49-1.11-1.43-.1-.22-.3-.36-.47-.52-.86-.81-.62-1.9.53-2.11.97-.18,1.6-.4,1.89-1.52.15-.59,1.08-.94,1.7-1.34.11.01.22.05.32.1,1.05.52,1.73,1.46,2.55,2.25.44.42.72.8.42,1.39-1.63,2.17-3.47,4.15-5.41,6.04Z"/>
        <path class="cls-6" d="m50.16,45.89c-.12-.11-.32-.2-.33-.32-.15-1.26-.91-1.49-2.33-1.03,1-.95,1.05-1.47-.13-1.61-.17-.02-.45-.19-.46-.32-.17-1.41-1.67-1.64-2.31-2.64-.46-.71-1.12-1.5-2.1-.53-.77-.52-.3-1.28-.37-1.94.07-.15.18-.26.31-.34.22-.19.13-.44.13-.68.02-.24.03-.5.19-.71.64-.46,1.08-.04,1.54.34.28.76.3,1.62.97,2.31.63-1.56,2.18-1.47,3.42-1.91.62-.22,1.13.18,1.43.79.28.58.71.66,1.27.38-.21-.79-.97-1.05-1.37-1.62-.24-.34-.71-.63-.27-1.1.4-.42.87-.31,1.29-.01.61.43,1.24.83,1.78,1.35.19.19.52.19.72.39.83,1.33.82,1.32-.51,2.27-.55.39-1.03.77-.61,1.62.37.75-.46,1.59,0,2.41-.74.98-1.27,2.12-2.25,2.91Z"/>
        <path class="cls-30" d="m40.6,41.34c.39-.19.76-.34,1.24-.27,1.43.22,1.52.23.91,1.54-.34.72.77.56.43,1.15-.07.11-.08.14-.06.14-.01.03,0,0,.03-.1.06-.15.2,0,.06-.08-.01,0-.03.02-.03.04.86-.24,1.55-.21,1.24.93-.19.69.39.63.79.92-.56.31-.94.73-1.19,1.27.34.19.52-.1.68-.27.37-.4.62-.44,1.04,0,.46.48,1.03.63,1.42-.16.28-.55.63-.51,1.02-.11.33.33.64.63,0,.98-.18.1-.53.2-.4.49.12.29.49.18.74.24.14.34.03.55-.33.64-.33.33-.66.65-.99.98-1.3,1.17-1.41,1.17-2.73.06-.37-.32-.77-.49-1.29-.42-.48.06-1.03.19-1.39-.35-.6-.29-.89-.71-1-1.43-.16-1.03-.6-1.96.18-2.98.34-.45-.86-1.92-1.51-1.99-.6-.06-1.08-.25-1.09-.97.13-.29.38-.42.67-.48.51.14,1.05.13,1.56.26Z"/>
        <path class="cls-9" d="m61.71,27.55c-.05.17-.1.33-.15.5-.63.71-1.28.98-2.07.2-.43-.42-.97-.59-1.6-.58-.49,0-1.03.05-1.39-.43-.11-.38-.23-.75-.36-1.13-.02-.89-.55-1.33-1.35-1.52-.19-.05-.44-.02-.57-.13-.46-.41-1.37-.7-.96-1.51.39-.8,1.14-.42,1.76-.16.38.16.66.42.72.86.09.13-.05-.03.05.1,0,0,0,0-.01-.02-.14-.48.21-.67.5-.9.1-.05.21-.08.32-.1.15-.02.43-.02.43-.1-.07-1.08,1.06-1.68,1.06-2.71,0-.64.62-.97.75-1.55.05-.1.13-.19.22-.26.72-.27,1.45-.32,2.19-.05.42.16.83.21,1.27.05.44-.16.81-.03.94.43.13.47-.21.77-.6.88-.64.18-1.31.28-1.98.3-.38,0-.63.05-.58.5.05.42.3.52.67.43.34-.09.68-.18,1.02-.29,1.12-.36,1.43-.11,1.42,1.09,0,.17.1.29.2.42-.04.66-.2,1.29-.45,1.9-.63.18-.68-.35-.9-.7.17.45.25,1.02-.24,1.16-.75.21-1.51.98-2.01.51.35.36.28,1.1-.11,1.91.8-.09,1.72-.38,1.81.92Z"/>
        <path class="cls-51" d="m52.41,42.98c-.83-.3-1.75-.52-.51-1.56.43-.37.16-.91-.31-1.17-1.07-.58-.53-.9.18-1.16.73-.27,1.17-.99,2-1.09q-.91-.42-.34-1.16c0-.05.01-.11.02-.16.18-1.02,1.11-1.61,1.44-2.57.12-.37.58-.29.9-.05.28.56.72.91,1.35.66.52-.21.72-.06.78.44-1.65,2.74-3.39,5.41-5.5,7.83Z"/>
        <path class="cls-56" d="m63.6,21.86c-.14-.07-.35-.1-.4-.21-.31-.73-.31-.36-.96-.39-.77-.03-1.58.42-2.34-.04-.71-.43-.17-1.09-.25-1.62-.08-.55.52-.51.97-.52.86,0,1.76.13,2.51-.63-1.39.68-2.67-.18-4.01-.15-.18.03-.33-.01-.47-.13-.07-.09-.1-.2-.08-.31.06-.19.31-.36.28-.49-.29-1.29.51-1.53,1.49-1.62.31-.07.37-.46.69-.53.4.31,1.08-.49,1.08-.05-.01,1.07.4,1.54,1.39,1.65-.04.33-.05.64.34.77.03.63.05,1.26.08,1.9-.1.79-.21,1.58-.31,2.37Z"/>
        <path class="cls-51" d="m60.4,30.67c-.57,1.43-1.36,2.74-2.23,4.01-.31.02-.62-.05-.94-.02-.38.03-.65-.23-.87-.53-.24-.33-.22-.63.11-.9-.29.28-.6.54-1.03.27-.51-.29-1-.58-1.44-1-.4-.37-.87-.64-1.48-.58-.69.07-1.21-.22-1.54-.84-.04-.11-.06-.22-.04-.33.13-.34.4-.48.74-.44.77.09,1.41-.1,2.04-.6.87-.68,1.49.24,2.21.52.35.43.71.83,1.17.1.28-.44.64-.46,1.12-.31.72.22,1.57.01,2.18.65Z"/>
        <path class="cls-53" d="m61.71,27.55c-.31-.28-.58-.76-1.09-.47-1.05.59-1.55-.2-2.2-.72.39-.46,1.25.25,1.26-.46,0-1.08-.12-1.08-1.5-1.13.97-.91,1.3-.95,2.28-.32.42-.4-.32-.57-.17-.96.08,0,.21-.04.28,0,.23.15.42.36.66.49.28.15.57.06.72-.21.19-.33,0-.52-.34-.55-.65-.07-.68-.56-.5-.95.28-.61.55.12.84.09,1.09-.12.8.93,1.21,1.39-.35,1.31-.67,2.64-1.45,3.79Z"/>
        <path class="cls-18" d="m41.79,48.94c.31-.03.68.04.91-.1.91-.58,1.69-.15,2.16.48.66.89,1.22.91,2,.29.06-.05.22.03.33.04.05,0,.09,0,.13-.01.03.9-.46,1.41-1.27,1.67-.4.39-.8.77-1.2,1.16-.07-.47-.42-.72-.78-.97-.46-.32-1.06-.53-1.07-1.27,0-.31-.31-.4-.61-.43-.52-.05-.79-.3-.62-.86Z"/>
        <path class="cls-53" d="m56.75,27.09c1.2.16,2.46.06,3.44,1.07.2.21.9-.06,1.37-.11-.17.75-.47,1.46-.84,2.13-.76.4-2.02.17-2.78-.49-.05-.17-.06-.34-.02-.51.49-.85-.05-1.05-.71-1.02-.79.03-1.44-.16-1.93-.81-.16-.82.37-.83.94-.79.29.07.43.28.53.54Z"/>
        <path class="cls-57" d="m55.56,33.27c.38.14.59-.02.72-.37.16-.41.38-.77.9-.9.18.72.16,1.32-.72,1.56.53.54,1.06.92,1.71,1.13-.09.16-.17.31-.26.47-.75-.07-1.47-.07-1.75,1.04-.37-.71-.52-1.33-.6-1.98q-.41-.7,0-.95Z"/>
        <path class="cls-10" d="m58.18,29.71c.94-.34,1.65.56,2.54.48-.11.16-.22.33-.33.49-.62.07-1.21.06-1.83-.12-.48-.14-1.09-.38-1.45.43-.25.57-1.04.07-1.55.65.11-.55.17-.88.24-1.22.03-.05.05-.1.08-.15.74-.27,1.35-1.14,2.3-.56Z"/>
        <path class="cls-75" d="m46.06,51.31c.24-.69.8-1.15,1.27-1.67.56.04,1.08.21.42.77-.47.39-.52,1.77-1.69.9Z"/>
        <path class="cls-40" d="m49.84,50.11c.25.4,1.26.05,1.02.8-.21.66-.91.33-1.43.24-.15-.03-.31-.04-.46-.06.18-.42.51-.71.87-.97Z"/>
        <path class="cls-75" d="m48.19,48.67c.11-.21.22-.43.33-.64.06,0,.13-.02.19-.03.37.15.49.38.17.67-.2.17-.46.53-.69,0Z"/>
        <path class="cls-18" d="m38.46,41.58c.88.77,1.87.48,2.86.17,0,.69-.66.49-.8.87.08.33.41.35.61.53.73.68,1.01,1.38.15,2.16-.42.39-.74.77.04,1.15.27.13.37.48.22.72-.42.68-.01,1.2.25,1.76-1.66.85.61,1.04.19,1.75-.39.22-.48-.29-.72-.47-.25-.18-.48-.51-.81-.25-.24.19-.4.46-.16.82.45.69-.07.89-.59,1.07-.11.04-.24.01-.35.03q-2.17.37-1.13,2.28c-.13.14-.2.38-.47.24-1.27-.38-1.63.47-1.9,1.42-.23-.06-.45-.15-.58-.37-.75-1.27-1.75-1.46-3.02-.75-.69.39-1.22,1.1-2.1,1.13-.22-.41-.7-.56-.61-1.29.07-.52-.91-.82-1.62-.85-.28-.01-.79.16-.77-.25.02-.48.49-.36.84-.24.6.2.82.13.49-.56-.12-.24.25-.32.48-.38.66-.61,1.33-1.23,1.99-1.84.18-.16.39-.33.22-.59-.2-.31-.5-.24-.71-.04-.69.66-1.31-.2-1.99-.08-.22.04-.34-.3-.27-.56.08-.29.28-.33.55-.23,1.23.46,2.47-.11,3.73.02-.44-.13-.24-1.56-1.22-.53-.31.32-.55-.15-.67-.41-.23-.48,0-.88.43-1.07.46-.21.98-.28,1.5-.13.16,0,.32.08.46.04,1.12-.26,2.88-2.64,2.86-3.84.26-.45.58-.78,1.3-.32-1.02-1.25.43-1.55.6-2.29.92-.01,1.12.4.71,1.19Z"/>
        <path class="cls-23" d="m30.63,26.38c.17.39.35.78.56,1.25-.55.17-1.31-.13-1.5.62-.11.41.3.7.51,1.02.38.56.46-.4.85-.13-.09.31-.17.65-.27.98-.13.42-.08.68.46.68.27,0,.7-.3.8.15.08.35-.21.65-.51.87-.12.09-.23.2-.32.27,0,.4.31.39.51.43.86.16.82.17,1.56,1.26.17.25.7.27,1.06.39.42.14.79.29.32.78.13.42-.14.58-.46.68-1.44.48-1.91,1.06-2.04,2.58-.07.83-.77,1.32-1.57,1.03-.31-.12-.7-.17-.92-.5.07-.47-.29-.86-.02-1.44.19-.4-.51-1.02-1.11-.76-1.3.56-1.08-.59-1.02-1.02.12-.95.11-1.36-.95-.78-.45.24-.62-.14-.65-.54.39-.13.75-.42,1.06-.67-.3.27-.69.51-1.06.67-.41,0-.8.09-.84-.45-.02-.25-.21-.36-.4-.19-.29.26-.77.27-.93.67-.08.21.13.34.27.48.28.29,1.13.08.85.85-.24.65-.61,1.3-1.29,1.58-.95.39-1.89.86-3.01.54-.35-.1-.79.16-.83-.48-.03-.41-.31-.83.43-.94.7-.11.26-.79.39-1.18.13-.38-.44-.26-.7-.37-1.15-.46-1.89.27-2.74,1.03-.09.29.88.33.44.88-.22.08-.44.15-.67.22-.28.09-.51.49-.83.22-.28-.24-.06-.57-.02-.87.04-.29.05-.75-.12-.89-.79-.64-.3-1.12.1-1.65.46-.6,1-.67,1.65-.32.69.37.99-.48,1.55-.52.07-.08.14-.15.22-.22.2-.1.41-.14.63-.06.36.14.73.25,1.05.47.21.11.36.27.4.51-.02.28-.05.56-.56.81.99.04,1.84.05,1.8.88-.02-.27-.13-.75-.8-.83-.32-.04-.47-.26-.45-.58.21-.44.23-.89-.01-1.32-.32-.57-.35-1.15-.15-1.76.07-.09.15-.16.26-.21.24-.09.49.17.65.11,1.35-.55,1.83.17,2.03,1.33,0,0,0,0,0-.01-.08-.09-.19-.2-.18-.3.11-1.19-.37-1.49-1.46-1.05-.52.21-.93-.15-1.21-.53-.27-.37-.09-.75.22-1.05.48-.47.75-1.15.68-1.7.43-.66.85-1.37,1.79-.69.58.59,1.21,1.11,1.82,1.49-.14-.35-1-.31-.85-.99.13-.62.7-.51,1.17-.52.16-.03.33-.05.49-.03.38.1.86.41.7-.44-.13-.7.27-1.01.95-1.01.22,0,.44-.03.66.05.5.2,1.08.27,1.42.78.1.14.13.3.12.47Z"/>
        <path class="cls-18" d="m29.68,38.73c.3.08.6.18.9.24.89.18,1.47-.42,1.03-1.21-.31-.56-.28-1.05-.29-1.64.33-.25,1.11,1,1.18-.32.03-.56.54-.93,1.04-1.44.09.93.42,1.25,1.12.58.35.22.55.53.62.94.13.77.32,1.32,1.38,1.16.96-.15,1.17,1,1.8,1.46-.26.59.04,1.49-.95,1.66-1.18-.19-2.23.19-3.25.73-.32.17-.61.18-.79-.19-.19-.38-.44-.39-.77-.19-.16.1-.52.19-.51.04.11-1.51-1.17-.8-1.77-1.14-.3-.17-.86-.06-.74-.68Z"/>
        <path class="cls-34" d="m35.85,43c.94.85.87,1.48-.21,2.03-.32.16-.85.27-.4.82.12.15.11.33-.07.37-.75.18-1.3.69-1.94,1.07-.44.26-.61-.13-.71-.5.35-.36.51-.76.25-1.24-.04-.1-.06-.21-.06-.31.18-.39.35-.78-.24-.99-.17-.45-.64-.64-.9-1.02-.51-.31-1.24-.42-.46-1.32.59-.69.75-.91,1.18.07.2.46.7.88,1.29.87.51,0,.42-.45.37-.8.59-.4.83-.08.95.47.32.16.63.32.95.48Z"/>
        <path class="cls-68" d="m31.58,43.24c.63-.16,1.04.06,1.18.71-.36.55-.21,1.01.24,1.43h0c-.04.7-.49.59-.95.48-.16-.08-.32-.16-.48-.24-.16-.08-.32-.14-.48-.23-.84-.07-1.65-.28-2.49.23-.67.41-1.03-.5-1.58-.71-.02,0,0-.28.06-.31.59-.27,1.45-.9,1.74-.71,1.27.88,1.91-.14,2.75-.65Z"/>
        <path class="cls-7" d="m37.51,40.15c.63-.37.02-1.46.95-1.66.31.08.3.31.25.55-.14.65.22.5.59.37.33-.11.6-.63,1.01-.18.08.09.1.31.04.42-.21.45-.67.23-1.02.3-.02.73.94.54,1.03,1.13-.35.31-.74.4-1.19.24-.24.08-.47.16-.71.24,0-.54-.25-.93-.71-1.19-.08-.08-.16-.16-.24-.24Z"/>
        <path class="cls-18" d="m32.05,45.86c.32-.16.63-.32.95-.48.28.23.83.35.74.77-.12.58-.78.49-1.22.66-.16-.32-.32-.63-.48-.95Z"/>
        <path class="cls-18" d="m34.9,42.53c-.26-.26-.55-.49-.95-.47.09-.23.23-.4.48-.46.43-.1.95-.23,1.16.23.27.6-.52.39-.69.7Z"/>
        <path class="cls-18" d="m31.1,45.38c.24-.09.42-.06.48.23-.02.28-.08.6-.39.65-.35.06-.81.59-1.03.11-.3-.65.4-.45.71-.55.24-.08.29-.23.24-.45Z"/>
        <path class="cls-18" d="m29.27,47.9c-.07.19-.19.35-.4.34-.2-.01-.24-.19-.16-.34.07-.12.2-.25.32-.28.17-.04.26.09.24.27Z"/>
        <path class="cls-18" d="m28.53,46.65c.06.03.12.05.18.08-.04.05-.06.14-.11.15-.05.02-.11-.04-.17-.06.03-.05.07-.11.1-.17Z"/>
        <path class="cls-38" d="m28.97,25.67c-.16-.08-.32-.16-.48-.24-.2-.18-.44-.08-.67-.1-.63-.04-.81-.47-.4-.84.99-.91.53-1.44-.36-1.96-.27-.16-.65-.37-.6-.67.18-1.11-.68-1.14-1.34-1.39-.61-.17-1.27-.29-1.45-1.05.02-.05.04-.1.06-.15.32-.69.35-1.69,1.53-1.51.17.16.1.3-.04.39-.31.19-.43.45-.35.79.05.2.2.22.36.17.38-.12.77-.28.86-.71.15-.72-.1-1.37-.47-1.98.4-.44.88-.4,1.24-.05.3.29.67.38.98.6.99.86,1.79,1.88,2.5,2.98.02.44-.24.72-.54.97-.16.14-.34.25-.52.35-.03.02-.06.04-.1.05-.03.02-.07.03-.1.05.83.31,1.68.58,2.29,1.29.34.39.71.18,1.08.03.71-.29,1.43-.42,2.22-.12-.34-.28-.71-.16-1.04-.19-.43-.04-.66-.26-.7-.66-.04-.4.13-.73.53-.81.53-.1,1.02-.42,1.61-.22.58.2.97.05.77-.68-.13-.48.17-.73.47-1,.07-.54.4-.81.87-.55.71.4,1.47.43,2.25.59.04.34-.28.38-.35.59.08-.22.5-.27.35-.59.46-.39.84-.26,1.16.19.67.44,1.42.2,2.14.24.51.79,2.53,1.25,3.45.92.74-.27,1.58-.47,2.25.27.23.46.07.83-.32,1.1-.58.41-.91,1.02-1.3,1.58-.51,0-.96.37-1.49.21-.42-.13-.73-.67-1.16-.41.93.39,1.97.56,3.02.09.3.04.61.08.53.51-1.19.96-2.72.9-4.07,1.35-.58.19-1.21-.09-1.76-.34-.47.39.48.81-.11,1.13-.03.04-.07.09-.1.13-1.33.25-2.33-.7-3.52-.99-.11-.03-.11-.19-.23-.22-.2,1.12-1.14.23-1.62.6-1.01.37-1.06-.82-1.77-1.11-1.31-.52-2-.6-2.86.66-.33.48-.56,1.04-1.06,1.39-.08-.08-.16-.16-.24-.24-.32-.62-.77-.86-1.42-.47Z"/>
        <path class="cls-20" d="m16.61,30.89c-.41-.56-.6-1.46-1.65-.54-.2.18-1.08,0-1.47.63-.11.19-.55.09-.49-.2.22-1.09-.37-.76-.93-.6-1,.27-1.4-.08-1.39-1.19h0c.31-.3.72-.12,1.08-.23.54-.18.42-.43.11-.72-.08-.08-.16-.16-.24-.24-.41-.49-.2-.86.24-1.19.02-.68.49-1.55-.72-1.74-.09-.01-.22-.25-.21-.38.02-.27.27-.26.46-.24.27.03.54.1.81.15.58.11.58.11.61-.56.02-.4.35-.19.53-.25.64-.22,1.53.1,1.15-1.34-.24-.91.22-2.24,1.52-2.73.27-.1.51-.38.7-.62.64-.8,1.29-.95,2.02-.13.56.41,1.18.71,1.51,1.4.53,1.12.1,1.8-1.41,1.81,1.21.21,2.01-.76,3.02-.46.67.11,1.1.71,1.75.86.17.05.34.08.5.15.22.13.34.33.39.58-.07.56.1,1.2-.5,1.59-.73.14-1.41.38-1.98.89-.58.52-1.04.38-1.41-.26-.84,1.72-1.45,2.1-2.78,1.77-.19-.37.1-.99-.64-1.09.47.24.43.73.64,1.09,1.31.57.99,1.78,1.09,2.82-.25.43-.7.34-1.09.42-.48.01-.65.76-1.23.54Z"/>
        <path class="cls-14" d="m27.78,17.12c-.86.2-1.37-.66-2.14-.71-.08,0-.16,0-.24,0-.4-.15-.65-.68-1.19-.48-.18.07-.36.13-.53.22-.26.14-.48.53-.8.3-.33-.24-.22-.65-.05-.95.49-.87-.48-.21-.52-.51.01-.57,0-1.16.85-1.09.14.01.33-.04.43-.13,1.39-1.34,2.5-1.81,4.29-1.71.46.03.74-.18,1.01-.49.13-.15.31-.3.5-.13.21.18.06.33-.09.48-.53.55-.15,1.04.33.96.66-.12.55,1.22,1.26.56.58-.55-.27-.85-.34-1.32-.09-.66.31-.9.68-1.33.22.44.39.78.62,1.24.32-.84.91-1.17,1.63-1.3.31.26.62.51.93.77.11.35.04.65-.24.89-.08,0-.16,0-.23,0-.1-.11-.22-.11-.35-.05-.07.06-.13.13-.16.22-.07.19-.13.38.04.55.38,2.25.35,2.29-1.84,2.85-.32.08-.59.2-.77.47-.02.05-.04.09-.06.14-.24.19-.42.42-.59.68-.07.08-.16.15-.25.19-.62.31-1.23.41-1.81-.08-.07-.07-.14-.13-.23-.18-.05-.01-.1-.02-.14-.03Z"/>
        <path class="cls-67" d="m21.84,21.87c-1.15.64-2.47.35-3.68.69-.12.03-.32-.03-.41-.12-.16-.16-.12-.4.06-.51.42-.27.76-.93,1.39-.44.31.24.5.13.69-.1.19-.23.23-.48.05-.76-.4-.61-.79-1.23-1.19-1.85.7.31,1.31-.16,1.95-.31.11.4-.11.58-.29.78.62.66,1.26,1.3,1.62,2.15,0,.19-.05.34-.19.47Z"/>
        <path class="cls-20" d="m21.84,21.39c-.71-.26-1.61-1.6-1.43-2.14.7.31,1.37.46,1.28-.66-.03-.45-.44-1.06.02-1.27.44-.19,1.05.12,1.49.77-.82-.16-1.18.11-.97.93.48.09,1.21-1.01,1.5.22,0,0,0,0,0,0-.13.29.17.59-.01.89-.66,1.45-.81,1.55-1.88,1.25Z"/>
        <path class="cls-17" d="m11.86,28.04c.41-.18.85-.28,1.22-.01.21.16-.02.43-.12.63-.24.46-.58.72-1.14.58-.38-.09-.76-.16-1.14-.24.14-.64.86-.55,1.19-.95Z"/>
        <path class="cls-35" d="m14.47,14.03c.16-.08.32-.16.48-.24.36.23.89-.18,1.17.28.12.2-.06.37-.22.47-.54.33-.83-.23-1.24-.38-.07-.03-.12-.09-.19-.14Z"/>
        <path class="cls-17" d="m9.96,29.47c-.33.18-.58-.16-.88-.15-.22,0-.4-.06-.29-.34.07-.17.13-.38.27-.49.19-.16.36-.01.47.16.16.27.29.54.43.81,0,0,0,0,0,0Z"/>
        <path class="cls-38" d="m24.21,15.93c.56-.25,1.12-.49,1.19.48-.6.34-.78-.35-1.19-.48Z"/>
        <path class="cls-20" d="m11.15,26.85c-.39-.35-.88-.16-1.33-.27.61-.26,1.21-.3,1.8.04.08.27-.05.43-.29.48-.2.05-.24-.08-.19-.25Z"/>
        <path class="cls-17" d="m11.15,26.85c.26.14.37-.06.48-.23.08,0,.16,0,.23,0-.08.4-.16.79-.24,1.19-.45-.17-.76-.41-.48-.95Z"/>
        <path class="cls-20" d="m10.23,27.33c-.05.05-.1.13-.15.13-.05,0-.1-.08-.15-.13.05-.05.1-.13.15-.13.05,0,.1.08.15.13Z"/>
        <path class="cls-14" d="m18.51,12.84c.05.17.2.33.02.51-.02.02-.09,0-.1-.02-.16-.19-.03-.34.08-.49h0Z"/>
        <path class="cls-33" d="m21.84,13.08c-.22-.04-.49,0-.53-.31,0-.07.15-.22.21-.21.31.03.28.31.31.53h0Z"/>
        <path class="cls-35" d="m16.79,7.04c-.06.04-.15.15-.22.14-.17-.02-.25-.17-.2-.33.02-.08.15-.18.23-.18.19,0,.21.16.19.37Z"/>
        <path class="cls-16" d="m16.61,30.89c.43-.2-.1-1.37.95-.95.76.44,1.64.58,2.43.99-.61-.22-1.2-.45-1.24-1.23-.36-.55-.96-1-.57-1.82.16-.33-.19-.56-.39-.8,1.16.03,1.56-1.04,2.31-1.62.01-.45-.6-.13-.66-.6.55-.09,1.14-.15,1.66-.15.7,0-.17.6.21.97.64-.95,1.47-1.5,2.65-1.2.08.08.14.17.16.28,0,.24-.11.41-.3.55-.17.12-.3.3-.49.39-.33.07-.64.17-.7.58-.14.29-.37.57-.11.91,0,.05.01.1.02.14.07.83.46.35.76.18.13-.07.26-.21.4-.07.07.07.11.3.08.31-.75.39-.92,1.28-1.56,1.75-.11.08-.35-.2-.56.09.2.48.47.81,1.12.68,1.79-.37,1.9-.25,1.69,1.57,0,.08-.02.15-.04.23-.19-.04-.54-.07-.54-.13-.14-1.58-1.49-.95-2.31-1.29.03.56,0,1.05.51,1.55.61.6.13,1.17-.51,1.53-.14-.01-.16-.16-.24-.24-.16-.08-.32-.16-.48-.24-.2-.38-.56-.46-.95-.48-.16,0-.32,0-.48,0-.14-.11-.19-.41-.48-.24-.08-.02-.18-.02-.22-.07-.62-.66-1.21-1.36-2.15-1.59Z"/>
        <path class="cls-26" d="m18.99,32.55c-.13-.3-.24-.61.04-.88.06-.05.25-.06.31,0,.38.32.09.74.13,1.12h-.24c-.08-.08-.16-.16-.24-.24Z"/>
        <path class="cls-44" d="m61.03,15.22c-.03.41.28.88-.24,1.19-1.03-.17-.85-1.05-.99-1.72-.1-.49.06-1.03-.27-1.49-.14-.19-.3-.39-.56-.37-.31.02-.34.28-.35.52-.02.65-.5.97-.97,1.25-.54.33-.76.75-.65,1.36-.02.11-.06.21-.13.3-.41.34-.91.34-1.4.41-.41.06-.75.18-.74.69-.04.39.11.74.2,1.1.12.45.06.84-.57.78-.45-.29-.98-.47-.91-1.21.04-.45-.31-.87-.73-.97-1.56-.39-3.1-.29-4.53.53-.38,0-.65.24-.97.39-.3.15-.62.39-.9-.09-.31-.54.27-.54.44-.78.45-.64.07-.95-.48-1.19-.45-.06-.94.14-1.34-.22,1.3-1.36,2.71-.28,4.06-.21.05,0,.09.28.13.43.08.2.16.05.24,0,.37-.33.95-.39,1.11-.99.07-.25.37-.35.59-.19,1.18.86,2.64-.03,3.86.63.21.11.72-.16.44-.37-.35-.26.43-.95-.4-.83-.35.05-.84.15-.85-.32,0-.42.55-.43.85-.44,1.68-.07,2.48-1.41,3.58-2.34.19-.16.25-.29.11-.48-.16-.22-.34-.13-.51,0-.32.26-.8.27-1.02.74-.13.29-.43.66-.88.32-.22-.2-.54-.03-.75-.18-.36-.25-.54-.54.04-.77.12.16.26.37.46.27.36-.18.19-.55.21-.85.03-.41-.78-.85-.06-1.18.6-.28,1.15-.42,1.83.33.91.98,2.11,1.98,3.72,1.21.15.23.31.47.46.7-.51.02-1.02.06-1.52.07-.2,0-.42,0-.46.24-.04.24.15.33.34.41.28.12.6.21.84.39.3.22.53.77.23.9-.96.41-.77.95-.38,1.62.04.07-.13.27-.2.41Z"/>
        <path class="cls-44" d="m62.23,12.39c.03.06.08.12.07.18,0,.04-.1.06-.15.09-.03-.06-.08-.12-.07-.18,0-.03.1-.06.15-.09Z"/>
        <path class="cls-49" d="m45.83,26.38c0-.08,0-.16,0-.24.08-.57.4-.4.72-.24.85.38,1.88.25,2.61.95.01.42-.33.75-.18,1.24.44,1.51.4,1.53-1.09,2.15-.15.06-.28.14-.42.21.6-.24,1.19-.75,1.84-.54.62.2,1.48.12,1.76.98.34.73.39,1.55.7,2.29.05.09.1.19.14.29.1.21.14.42.06.64-.4.67-.91.36-1.43.18-1.42-.51-2.59-.2-3.52.91-.09.07-.18.12-.29.15-.76-.22-1.18.68-1.91.56-.11-.02-.22-.06-.32-.12-.19-.14-.32-.33-.41-.55-.06-.19-.09-.39-.21-.55-.1-.14.24-.86-.49-.29-.59.46-1.09-.33-1.58-.69-.16-.12.01-.42-.47-.41-1.19.04-2.07-1.15-2.04-2.47.06-.09.14-.17.23-.23.12-.09.24-.17.27-.35.27-1.47.41-1.55,1.82-1.02-.35-.17-.7-.34-.8-.76-.02-.11-.02-.22,0-.33.6-1.19,1.34-1.39,2.25-.51.3.29.54.36.92.32.58-.07,1.09.08,1.34.62.71-.63.89-1.37.51-2.22Z"/>
        <path class="cls-56" d="m56.75,16.17c0-.08,0-.16,0-.24.02-.19.11-.32.28-.41.35-.1.67.07,1.01.06.97.48,1.12.8.52,1.59-.32.42-.04.61.08.89h0c.21.56-.24.64-.54.8.35.01.55-.58,1.01-.33.07.04.14.07.21.11-1.05.55,0,2.05-1.16,2.55-.34.15-.59.36-.44.82.39,1.26-.36,1.22-1.22,1.03-.25-.45-.78-.81-.47-1.44.07-.08.13-.15.22-.2-.09.06-.16.14-.23.23-.27.62.24.97.48,1.41-.24.24-.48.47-.71.71,0,0,0,0,0,0-.57-.25-1.14-.51-1.71-.76-.18-.08-.4-.11-.52.1-.12.2,0,.38.13.53.44.49,1.03.64,1.66.76,1.18.23,1.48.73,1.16,1.74-.15.21-.02.52-.24.71-.3.07-.8-.18-.71.47.11,1.3-.04,1.58-1.19,1.89-.42.11-.69.36-.96.64-.69.69-1.52.5-2.33.38-.3-.04-.51-.33-.41-.62.26-.78-.14-1-.79-1.25-.96-.36-1.04-.81-.33-1.53.3-.3,0-1.09.79-.94.17-.09.38-.14.52-.27.91-.87,1.62-.64,2.23.36.18.3.41.68.83.42.46-.29,1.16-.36,1.34-.89.13-.35-.36-.84-.75-.57-.59.39-.55-.14-.82-.32-1.16-.77-1.28-2.25-2.26-3.17-.48-.45.34-.72.66-.68.86.1,1.59-.46,2.44-.37.39.04.63-.26.89-.65-.42-.1-.77-.18-1.12-.27-.03,0-.07-.07-.07-.08.04-.06.09-.1.14-.15.45-.25.19-.52-.01-.75-.36-.4-.29-.77,0-1.14-.04-.64.44-.51.8-.53.6-.04,1.14-.22,1.58-.66Z"/>
        <path class="cls-10" d="m50.34,25.89c-.15.58-.33,1.14-1.04,1.32.42.85,1.36.61,1.91,1.13,1,.94,1.05.89-.14,1.49.83-.05,1.84.51,2.25-.85.16-.54.69-.17,1.04-.24.42-.08.77-.25.87-.69.11-.48-.5-.26-.61-.57.26-.42.63-.14.95-.15.82.32,1.68.24,2.53.32.44.04.92.03.95.62.04.59-.19,1-.87.96-.75.48-1.72.52-2.38,1.19,0,0,0,0,0,0-.24-.01-.49.02-.71-.04-.71-.19-.77-.15-.95.44-.11.37-.46.49-.76.27-.75-.55-1.54-.29-2.33-.19-.6-.33-1.45.29-1.97-.54-.07-.12-.87,0-1.08.24-1,1.08-1.38.1-2.12-.57,1.22,0,2.45.31,2.84-1,.11-.37,0-1.26-.97-1.2.58-.22.93-.69,1.41-.98.39-.33.05-1.56,1.19-.96Z"/>
        <path class="cls-28" d="m36.32,19.02c.01.26-.25.52-.02.78.74.85-.01,1.12-.58,1.28-.51.14-1.06.03-1.6.23-.28.1-.81-.16-.78.34.03.59.55.36.93.32.86-.09,1.31.52.97,1.29-.16.37-.6.53-.71.2-.43-1.34-1.17-.57-1.74-.28-.67.35-1.43.77-1.83-.06-.51-1.08-1.21-.68-2.07-.56.38-.58.57-1.11-.39-1.07-.37.01-.87.02-.77-.45.12-.59.54-.14.82-.03.25.09.46.06.66-.1-.06-.22.02-.3.24-.24l.71-.71c.68-.28.97.38,1.44.59.07.11.1.24.15.36-.04-.1-.06-.22-.1-.32-.03-.07-.05-.14-.06-.22,0-.31.2-.5.4-.7.36-.37.76-.61,1.23-.24.87.67,1.64.82,2.33-.24.09-.15.37-.09.54-.18.08,0,.16,0,.23,0Z"/>
        <path class="cls-13" d="m45.83,26.38c.97.03,1.3.78.81,1.32-.59.65-.34,2.09-1.74,1.99-.32-.02-.69-.04-.41-.54.1-.19.66-.2.26-.56-.15-.14-.45-.18-.68-.15-.5.05-.16.52-.32.77-.31-.28-.66-.51-.9-.83-.74-1.01-.93-1.04-1.77-.11-.85-.93-.63-1.64.72-2.37,0,0,0,0,0,0,.9-.12,1.55.65,2.47.67.56,0,1.07.05,1.57-.2Z"/>
        <path class="cls-55" d="m46.78,23.29c-1.05-1.2.53-1.26.86-1.84.15-.26.65-.37.8-.77.78.95,2.16,1.57,1.67,3.21-.15.5.62.2.71.65-.35.25-.94-.12-1.21.43-.14.29-.47.54-.73.15-.19-.29-.18-.78.14-.93.35-.17.76-.15.38-.65-.27-.35-.6-.31-.9,0-.21.21-.49.23-.77.24-.24-.08-.47-.16-.71-.24-.13-.02-.21-.1-.24-.24Z"/>
        <path class="cls-38" d="m36.09,19.02c-.46.94-1.07,1.21-2.22,1.32-.81.08-.65-.03-.86-.52-.21-.49-.49,0-.72.14-.37-.23-.54.19-.81.26-.53.14-.91-.02-1.03-.6.06-.42.57-.5.65-.9.08-.08.17-.15.27-.19.52-.22.88.44,1.4.25.55-.21.76.2,1,.55.28.4.72.43,1.03.2.44-.32-.11-.59-.25-.7-.66-.49-.17-1.16-.35-1.71.59.21,1.13.43,1.01,1.26-.09.63.63.37.89.64Z"/>
        <path class="cls-56" d="m42.74,19.49c-.89.68-1.54.61-2.14-.24.64-.08,1.21-.21,1.22-1.06,0-.32.43-.71.64-.46.75.86,1.8.51,2.76.81-.69.97-1.6.43-2.37.46-.86.04-.15.31-.11.49Z"/>
        <path class="cls-38" d="m32.29,16.88c.68-.34,1.17.02,1.35.58.18.53-.4.62-.78.77-.13.05-.22.2-.33.3-.35.29-.89-.34-1.19.24-.83.54-1.12-.04-1.39-.67-.02-.12,0-.24.04-.36.51-.96,1.47-.76,2.31-.87Z"/>
        <path class="cls-52" d="m44.87,9.04c.03.07.1.14.1.21.03.43.88.73.39,1.12-.41.33-1.04.06-1.44-.38-.33.02-.78.24-.91-.2-.18-.56.38-.43.66-.53.39-.14.64-1.07,1.2-.21Z"/>
        <path class="cls-6" d="m32.29,16.88c-.57.63-1.48.51-2.14.95-.3-.16-.41-.39-.24-.72,0-.08,0-.16,0-.23.21-.38.61-.36.95-.48,0,0,0,0,0,0,.52.03,1,.16,1.43.47Z"/>
        <path class="cls-6" d="m31.34,18.78c-.08-.4-.08-.82.35-.97.61-.21.53.51.84.73.08.08.16.16.24.24-.48.77-.95.01-1.43,0Z"/>
        <path class="cls-38" d="m34.08,17.28c.02-1.09.48-1.41,1.29-1.54-.17.76-.82.94-1.29,1.54Z"/>
        <path class="cls-13" d="m46.54,25.9c-.24.08-.48.16-.72.24-.17-.82.61-.66.9-1.11.22.5-.12.64-.18.87Z"/>
        <path class="cls-33" d="m33.47,13.08c-.08-.24-.16-.47-.24-.71-.15-.31.01-.52.24-.71.28.16.43.39.48.71-.27.16-.43.4-.48.72Z"/>
        <path class="cls-13" d="m44.54,25.75c.05.04.1.08.15.11-.04.05-.08.13-.11.13-.05,0-.1-.06-.16-.1.04-.05.08-.09.12-.14Z"/>
        <path class="cls-70" d="m49.4,5.78c.17-.38.43-.67.86-.73,2.2-.35,4.34-.32,6.31.91.33.2.67.2,1.01.26.49.09.6.33.28.73-.04.1-.1.11-.17.03-2.63-1.31-5.37-1.89-8.3-1.2Z"/>
        <path class="cls-48" d="m54.13,9.99c-.93.05-1.27,1.13-2.2,1.23-.34.04-.67.22-1.03.17-.31-.04-.52-.2-.49-.54.02-.32.22-.54.54-.47.55.11.55-.16.82-.58.44-.68,1.51-.55,2.36-.52.2.24.23.47,0,.71Z"/>
        <path class="cls-22" d="m54.13,9.99c-.1-.24-.11-.47,0-.71.61-.12-.27-1.12.53-1,.6.09.44.84.61,1.29.14.36.2.75.3,1.13-.32.73.49.62.71.95-.39.02-.78.02-1.17.06-.68.07-1.17.06-.57-.8.33-.47-.09-.69-.4-.93Z"/>
        <path class="cls-44" d="m59.41,8.03c.41.13.68.43.93.76-1.02.41.11.73.05,1.1-1.63-.31-1.78-.59-.98-1.86Z"/>
        <path class="cls-41" d="m46.3,15.93c.46-.32.69-.16.86.34.15.44.2.77-.39.85-.36-.22-.72-.44-1.18-.71.04-.31.69-.05.7-.47Z"/>
        <path class="cls-44" d="m57.69,6.98c.06-.01.11-.02.17-.03.43.31.99.41,1.3.89-.65.02-1.3.05-1.95.07-.09,0-.19-.09-.29-.15.04-.5.69-.35.77-.78Z"/>
        <path class="cls-41" d="m49.39,15.93c-.04.07-.07.13-.11.2-.15.27-.36.4-.66.25-.08-.04-.2-.19-.18-.23.15-.31.46-.18.7-.22.08,0,.16,0,.24,0Z"/>
        <path class="cls-41" d="m43.12,14.52c.03.06.08.14.13.23-.09.03-.18.09-.28.09-.04,0-.12-.11-.12-.17,0-.14.08-.19.27-.15Z"/>
        <path class="cls-41" d="m44.22,14.57c.1.14.21.23.2.31,0,.1-.09.24-.17.27-.26.09-.14-.16-.18-.26-.02-.06.08-.17.15-.32Z"/>
        <path class="cls-13" d="m39.41,30.89c.05.38.36.59.57.87.94,1.22.93,1.22,1.98.2.08-.08.19-.12.35-.22.25.85-.94,2.38,1.07,2.33.08-.46-.62-.33-.56-.89.6.29,1.35.24,1.35,1.2,0,.24.34.13.48.24.54.46-.01.43-.25.53-.45.17-.81.58-1.37.5-.23-.03-.43.15-.29.45.06.03.11.05.17.08-.06.05-.11.11-.17.16-.26.4.43.79,0,1.19-.16,0-.32,0-.48,0-.12.15-.26.27-.47.23-.23-.16-1.03.52-.71-.47.12-.31.22-.67-.12-.85-1.03-.55-1.06-1.19-.18-1.88-.76-.73-1.43-1.34-2.5-.9-.21.08-.56.11-.76-.16-.22-.34-.29-.79-.66-1.04-.02-.05-.03-.1-.05-.15-.21-.49-.51-.87-1.05-1.04-.57-.18-.5-.51-.14-.86,0-.37.32-.66.06-1.14-.3-.54.14-.97.71-1.1.83-.2,2.4.96,2.21,1.77-.2.89.39.77.81.94Z"/>
        <path class="cls-41" d="m41.79,25.9c-.33.76-.99,1.42-.72,2.37,0,0,0,0,0,0-.98.85-1.33-.26-1.92-.61-.1-.06-.29-.14-.31-.08-.83,1.78-1.89.57-2.88.23-.04-.01-.08,0-.11-.01-.33-.33-.82-.35-1.25-.53.3-.65.85-.57,1.32-.55.42.02.79,0,.97-.43.23-.54-.33-.6-.56-.86.13-.15.22-.37.38-.43,1.04-.39,1.04-.38.36-1.24,1.54.79,3.13,1.47,4.72,2.15Z"/>
        <path class="cls-62" d="m35.85,27.8c.53-.9.9.07,1.34.14.42.06.9.8.82-.43-.06-1.04.83-.57,1.4-.41.2.46.07,1.11.77,1.29.27.07.41.38.22.53-.66.52-.45,1.34-.75,1.97-.08,0-.16,0-.23,0-.08.02-.15.03-.23.05-.38.13-.29,1.08-.94.64-.53-.36-.45-.96-.13-1.47.39-.62-.18-.74-.5-.95-.47-.3-.91-.88-1.56-.44-.29.2-.21.47.13.61.36.14,1.09-.32,1.06.28-.04.64-.78.76-1.41.73-.07,0-.15.04-.23.06-.36-.17-.77.61-1.09-.02-.26-.52.16-.79.48-1.14.37-.41.57-.96.85-1.45Z"/>
        <path class="cls-50" d="m37.51,33.5c.35-.04.71-.04,1.05-.13.38-.1.59-.31.11-.59-.22-.13-.46-.27-.22-.52.24-.26.52-.11.71.13.69.84,1.45,1.53,2.62,1.64.41.04.37.35.15.61-.12.14-.29.28-.46.35-.38.16-1.01.12-.93.7.08.58.72.44,1.16.49,0,.55-.26.87-.63,1.13-.22-.99-1.09-1-1.82-1.14-.82-.16-1.21-.4-.59-1.22.4-.53.23-.88-.4-1.03-.29-.07-.66,0-.76-.41Z"/>
        <path class="cls-50" d="m41.79,37.78c.16-.08.31-.16.47-.23.73.55-.11,1.3.24,1.89-.79-.01-.72-.02-.8-.67-.05-.36-.07-.67.09-.99Z"/>
        <path class="cls-13" d="m36.8,33.03c-.45-.14-.89-.19-1.36-.02-.21.07-.48-.11-.48-.38,0-.23.25-.27.44-.28.47-.02.94-.02,1.4-.03,0,0,0,0,0,0,.19.24.21.47,0,.71Z"/>
        <path class="cls-50" d="m36.8,33.03c0-.24,0-.47,0-.71,1.02-.07.92.52.71,1.19-.24-.16-.47-.32-.71-.47Z"/>
        <path class="cls-18" d="m39.17,41.34c.38-.19.78-.25,1.19-.24.08.08.16.16.23.24-.47.17-.95.72-1.42,0Z"/>
        <path class="cls-25" d="m37.75,54.4c.16-.08.31-.16.47-.24-.06.27-.12.53-.22,1,.95-.67,1.83.32,2.73-.19.17-.09.38.23.38.5,0,.49-1.08,1.4-1.57,1.38-.71-.02-.98-.74-1.59-.95-.96-.33-.07-1-.2-1.5Z"/>
        <path class="cls-11" d="m32.66,58.74c-.37-.03-.86.38-1.07-.05-.23-.47.36-.71.64-1,.29-.29.44-.77.96-.78.71-.02,1.14.44,1.24,1.01.1.56-.45.76-.95.82-.27.03-.55,0-.82,0Z"/>
        <path class="cls-18" d="m36.35,57.43c-.63-.02-1.09-.11-1.15-.73-.05-.53.4-.91.74-.79.59.21,1.62-.16,1.72.65.09.8-.91.62-1.31.86Z"/>
        <path class="cls-11" d="m31.44,56.84c-.03.15-.08.28-.21.19-.07-.05-.09-.19-.1-.29,0-.11.08-.22.2-.15.07.05.08.19.1.25Z"/>
        <path class="cls-49" d="m53.43,36.83c-1.03.03-1.54-.89-2.34-1.29-.34-.17-.59-.54-1.21-.35.92.52,1.21,1.58,2.31,1.84.36.08.33.76.04,1.13-.56.71-2.1.52-2.54-.3q-.68-1.26-1.68-.3c-.18.17-.4.39-.6.18-.31-.33-.49-.68-.94-.11-.37.48-1.1.77-.49,1.55.14.17.13.38-.06.52-.15.11-.34.06-.42-.08-.53-1.05-1.69-1.85-1.35-3.26-.02-.36-.42-.97.48-.71h0c.55.25,1.24.38,1.12.95.06-1.15.16-1.21,1.82-.71-.18-.06-.72-.54-.8-.71.71-.73,1.69-1.01,2.59-1.3.97-.3,1.82.52,2.74.8.21.07.43.16.66.21.74.47,1.1,1.07.66,1.94Z"/>
        <path class="cls-45" d="m48.41,42.73c.04-1.34.85-2.62-.46-3.73-.25-.21.06-.42.22-.57.21-.2.41-.22.52.11.05.15.15.29.16.44.09,1.2.99,1.43,1.92,1.59.26.04.6-.05.65.33.04.36-.31.4-.54.52-.82.44-1.64.88-2.46,1.32Z"/>
        <path class="cls-50" d="m44.64,35.64c-.43.06-.23.54-.48.71-.46-.16-.87-.65-1.42-.24-.5-.46-.55-.89.24-.84.5.03.92-.59,1.42-.11.08.16.16.32.24.48Z"/>
        <path class="cls-50" d="m42.74,37.54c-.05-.4-.76-.79,0-1.19.25.25.5.52.55.89.06.52-.18.53-.55.3Z"/>
        <path class="cls-39" d="m43.36,44.57c-.4-.07-.54-.3-.42-.66.03-.08.18-.13.28-.19.07.27.41.5.14.85Z"/>
        <path class="cls-5" d="m59.13,18.54c-.67.49-1.36.64-2.36.17.77-.32,1.61.23,1.89-.65.16.08.32.16.48.24,0,.08,0,.16,0,.24Z"/>
        <path class="cls-10" d="m56.28,26.85c-.26-.14-.51-.28-.86-.47.45-.1.77-.17,1.1-.24.28.27.47.55.24.95-.16-.08-.32-.16-.48-.24Z"/>
        <path class="cls-56" d="m55.8,23.76c.36-.03.73-.3,1.21.14-.5.35-.86.37-1.21-.14,0,0,0,0,0,0Z"/>
        <path class="cls-10" d="m53.43,36.83c-.08-.62-.73-1-.71-1.66-.43-.3-.83-.63-.95-1.18-.08-.16-.16-.32-.24-.48.1-.11.22-.19.36-.24-.14.04-.26.13-.36.23-.15.03-.37.13-.43.07-.37-.37.22-.96-.36-1.38-.75-.55.2-.86.32-1.3.58.31,1.18.51,1.84.64.65.13,1.56,0,1.83,1.01.07.25.55.17.85.23.65.13,0,.33,0,.5,0,.32,0,.63,0,.95-.81.02-.51.46-.33.86.13.27.4.75-.09.69-.95-.12-1.11.78-1.71,1.06Z"/>
        <path class="cls-5" d="m58.65,18.07c-.98.18-.61-.89-1.12-1.07.3-.56.88.17,1.04-.33.14-.43-.4-.5-.63-.74-.27-.26-.58-.36-.95-.23-.08.08-.16.15-.24.23-.46-.98.05-1.84,1.45-2.23-.45-.39-.68-.77-.12-1.24.35-.3.64-.68,1.1-.37.57.38,1.32.7,1.2,1.57-.13.97.03,1.87.41,2.76-.28.23-.58.14-.89.06-.24-.06-.6-.27-.69.12-.1.43.36.29.57.41.09.05.17.14.25.21-.28.61-.97.51-1.38.85Z"/>
        <path class="cls-5" d="m62.87,17.47c-.36.24-.69.48-1.04.06-.12-.15-.2-.45.02-.51.41-.12.75.1,1.03.45Z"/>
        <path class="cls-51" d="m55.8,30.42c.35-1.28,1.44-1.08,2.38-1.19,0,.16,0,.32,0,.48-.85.06-1.44.95-2.38.71Z"/>
        <path class="cls-27" d="m25.16,19.97c.72-.06,1.2.76,2.18.42-1.06,1.29,0,1.59.66,2.14.35.28,1.17.42.89,1.03-.26.54-.28,1.51-1.32,1.44.31.14.62.29.93.43-.72.36-.74,1.09.02,2.02-.77.07-1.38-.13-1.92-.59-1.02-.61-1.15-1.03-.41-1.69.22-.2.05-.26.01-.32-.61-.82-.8-1.89-1.55-2.63-.29-.21-.68-.23-.9-.55-.16-.29-.16-.58-.01-.87.33-.53,1.02-.43,1.42-.83Z"/>
        <path class="cls-27" d="m23.98,24.72c0-.08,0-.16,0-.24.35-.34-.52-.93.24-1.19,1.49-.14,2.09.6,1.54,1.93-.12.3-.07.49.09.75.21.35.59.64.51,1.12-.3.19-.57-.3-.96.01.32.49.76.8,1.33.94.36.09.48.26.22.57-.2.23-.68.57-.71.45-.29-1.24-1.78-1.21-2.26-2.2,0-.07,0-.14-.04-.2-.04-.06-.09-.12-.16-.17-.14-.11-.33-.12-.46-.24-.14-.16-.22-.34-.22-.55.02-.11.07-.19.15-.26.08-.16.16-.32.24-.48.26.12.55.31.48-.24Z"/>
        <path class="cls-19" d="m26.35,27.09c-.13-.19-.23-.44-.41-.56-.65-.47-1.15-.86-.31-1.67.41-.4.14-.97-.48-.95-.53.02-.8-.14-.94-.61-.08-.16-.16-.32-.24-.47-.32-.42-.07-.68.27-.9.22-.1.43-.26.67-.05.6.38,1.33.54,1.05,1.66-.14.56.87,1.14.89,1.96,0,.16.64.22.26.56-.29.26-.48-.13-.66-.3-.11-.11-.15-.28-.21-.43-.1.07-.2.14-.3.21.21.44.43.88.64,1.32-.08.08-.16.16-.24.24Z"/>
        <path class="cls-26" d="m21.36,33.5l.24.24c.05.06.08.15.15.18.94.43,1.35.96,1.9,2.57-.6-.49-1.26-.69-1.42-1.41-.07-.31-.19-.51-.56-.45-.85.14-1.29-.61-2.03-.81.53-.77,1.32.72,1.72-.32Z"/>
        <path class="cls-26" d="m27.66,32.25c.29.05.53.26.3.46-.5.43-.73,1.13-1.4,1.36-.19.07-.39.24-.61.05.47-.11-.54-.96.41-.81.46.07.63-.18.73-.56.08-.29.26-.48.57-.49Z"/>
        <path class="cls-16" d="m24.21,26.62c-.08.08-.16.16-.24.24-.73-.62-.83.67-1.42.47-.25-1.03-.05-1.28.95-1.19.16.08.32.16.48.24.1.05.23.09.24.24Z"/>
        <path class="cls-39" d="m28.97,25.67c.32-.6.99-.27,1.42-.65.17.46.1.79,0,1.13-.45-.23-.9-.47-1.42-.47Z"/>
        <path class="cls-26" d="m24.45,32.08c.44-.06.93-.21,1.04.53-.52.09-.79-.19-1.04-.53Z"/>
        <path class="cls-26" d="m30.41,36.8c-.27-.01-.25-.24-.29-.42-.03-.15-.05-.34.14-.38.23-.05.34.14.39.33.05.21-.04.38-.25.47Z"/>
        <path class="cls-26" d="m19.94,32.79c.46-.13,1.08-.58.95.48-.32-.16-.63-.32-.95-.48Z"/>
        <path class="cls-26" d="m21.64,36.68c-.06.02-.13.06-.19.05-.03,0-.07-.13-.05-.15.04-.04.12-.05.18-.07.02.06.03.11.05.17Z"/>
        <path class="cls-26" d="m32.01,38.55c.65-.14.98-.27,1.3.07-.35.34-.66.1-1.3-.07Z"/>
        <path class="cls-18" d="m33,45.38c-.46-.03-.84-.15-.91-.69-.06-.49.21-.7.66-.74.3.32.85.16,1.13.57-.17.42-.82.34-.89.85Z"/>
        <path class="cls-41" d="m29.91,17.11c.08.24.16.48.24.72-.25.36-.1.63.18.9.21.2.52.38.3.76.2.5.54.5.94.24.34-.22.58-.16.72.23-.16.16-.32.32-.48.48-.09.07-.09.22-.24.24-.62.05-.97-.43-1.42-.71-.61-.09-1.05-.28-1.09-1.05-.03-.58-.61-.75-1.11-.86-.84-.19-.73-.52-.17-.94,0,0,0,0,0,0,.08-.23.29-.34.47-.47.44.55.99.73,1.66.47Z"/>
        <path class="cls-41" d="m46.78,23.29c.08.08.16.16.24.24-.76.13-1.52.43-2.29,0-.45-.25-.6.17-.82.43-.18.21-.46.44-.69.25-.16-.14-.13-.5-.19-.75-.12-.43.23-.47.47-.5.38-.04.87-.14,1.14.04.7.46,1.41.37,2.14.29Z"/>
        <path class="cls-41" d="m39.5,18.9c.04.59-.27,1.08.32,1.31.18.07.3.3.12.48-.16.16-.42.1-.54-.01-.33-.31-.96-.44-.96-.93,0-.5.7-.41,1.06-.85Z"/>
        <path class="cls-43" d="m25.16,19.97c-.48.1.02,1.82-1.18.71-.41-.07-.61-.28-.48-.71l.24-.71c.53.12.76.85,1.42.71Z"/>
        <path class="cls-41" d="m29.44,20.68c-.08.08-.16.16-.24.24-.22-.08-.46-.22-.22-.46.24-.24.38,0,.46.22Z"/>
        <path class="cls-26" d="m18.75,29.7c.17-.01.48-.35.45.14-.02.3.07.52.35.44,1.18-.33.94.82,1.34,1.28.12.14.24.46-.12.55-.22.05-.52.14-.64-.12-.49-1.07-1.53-1.25-2.48-1.58-.31-.11-.57-.23-.09-.49.41,0,.83.05,1.19-.24Z"/>
        <path class="cls-19" d="m23.5,19.97c.16.24.32.47.48.71v.95c.08.08.13.17.15.27-.1.37-.39.62-.62.91-.83.17-1.16-.53-1.66-.94,0-.16,0-.32,0-.48.87-.1,1.1-.95,1.66-1.43Z"/>
        <path class="cls-16" d="m16.7,27.47c.37-.42.86-.78.06-1.09-.7-.26-.15-.88-.33-1.4.78.11,1.23.74,1.9.94.23.07.27.32.1.48-.46.42-.78,1.08-1.72,1.07Z"/>
        <path class="cls-17" d="m15.58,28.76c-.67-.03-1.2-.21-.6-1.11.08-.12.17-.27.17-.41.01-.22-.78-.29-.18-.62.44-.24.72.11.88.52.1.25.17.54.34.74.6.76.14.86-.61.87Z"/>
        <path class="cls-17" d="m13.88,26.16c.16.02.34.02.32.24-.01.17-.16.27-.33.27-.17,0-.32-.1-.33-.27-.01-.21.18-.21.33-.23Z"/>
        <path class="cls-27" d="m23.5,22.81c.16-.31.32-.63.48-.94.27-.15.36.07.47.24-.16.24-.32.47-.47.71-.16,0-.32,0-.47,0Z"/>
        <path class="cls-17" d="m13.34,27.24c-.21.32-.37.31-.51.25-.08-.04-.2-.19-.18-.23.08-.17.25-.14.4-.1.11.03.22.07.3.09Z"/>
        <path class="cls-43" d="m15.55,21.87c.15.07.25.18.18.34-.02.06-.2.1-.25.07-.08-.05-.14-.18-.15-.28-.01-.14.1-.17.23-.14Z"/>
        <path class="cls-17" d="m14.13,28.83c-.08.07-.16.15-.24.19-.02.01-.1-.09-.15-.13.07-.08.14-.16.21-.22,0,0,.1.09.18.16Z"/>
        <path class="cls-41" d="m30.86,16.4c-.15.5-.62.35-.95.48.03-.73.45-.68.95-.48Z"/>
        <path class="cls-41" d="m33.47,11.66c-.08.24-.16.47-.24.71-.21-.13-.38-.3-.26-.57.1-.24.3-.21.5-.14Z"/>
        <path class="cls-38" d="m28.25,16.65c-.16.16-.32.31-.47.47-.31-.63.1-.53.47-.47Z"/>
        <path class="cls-19" d="m22.87,19.62c-.17.45-.24.81-.65.83-.07,0-.24-.23-.22-.34.06-.52.48-.32.87-.49Z"/>
        <path class="cls-23" d="m23.5,26.14c-.64.14-.93.55-.95,1.19-.29-.03-.68.07-.8-.29-.17-.48.35-.61.57-.9.27-.25.44-.7.94-.47.62-.11.3.25.24.48Z"/>
        <path class="cls-20" d="m23.26,25.66c-.31.16-.63.32-.94.47.04-.61.22-1.03.95-.7,0,.08,0,.15,0,.23Z"/>
        <path class="cls-23" d="m21.61,30.66c-.25-.06-.65-.02-.57-.37.08-.36.32-.14.45.05.06.09.08.21.12.32Z"/>
        <path class="cls-23" d="m23.98,24.72c.16.04.5.02.39.23-.22.39-.57.2-.86,0l.48-.24Z"/>
        <path class="cls-5" d="m56.75,16.17c-.18,1.62-1.37,1.23-2.38,1.19-.33-.66.23-1.35,1.1-1.31.43.02.85.08,1.28.13Z"/>
        <path class="cls-6" d="m46.78,35.17c.6.25,1.15.67,1.88.41.39-.14.6.15.59.52-.01.37-.31.45-.6.33-.63-.25-1.43.49-2-.47-.25-.42-.56.16-.44.42.32.68-.27.94-.51,1.37-.16.28-.42.41-.68.22-.24-.17-.32-.64-.18-.74.95-.69.05-1.08-.21-1.58.24-.11.63-.17.69-.35.41-1.12.94-.4,1.44-.13Z"/>
        <path class="cls-13" d="m39.65,30.89c-.28-.35-.47-.76-.2-1.16.45-.67.93-1.19-.41-1.47-.38-.08.43-.7.37-1.17.5.48.74,1.31,1.66,1.18.06.2.18.34.41.35.52.03,1.25-.14.65.81-.21.33.39.43.35.83-.61-.03-.88-.64-1.39-.8-.26-.08-.53-.23-.76.03-.23.25-.13.5.06.74.22.27.84.45.38.9-.39.39-.79.02-1.13-.26Z"/>
        <path class="cls-6" d="m51.76,33.98c.44.3,1.06.44.95,1.18-.34-.04-.88,1.01-1.04-.26-.08-.61-1.56-.72-2.22-.45-.85.35-1.74.65-2.68.72.67-1.36,2.43-1.99,3.79-1.34.39.19.74.5,1.19.15Z"/>
        <path class="cls-10" d="m51.22,27.76c.22-.15.25-.18.28-.19.6-.17.95.33,1.41.55.02.01-.01.27-.06.28-.67.19-1-.41-1.63-.64Z"/>
        <path class="cls-58" d="m56.52,23.06c-.67-.31-1.24-.64-.48-1.43h0c.14.48.82.78.48,1.43,0,0,0,0,0,0Z"/>
        <path class="cls-58" d="m56.04,21.63c.05-.95.7-.79,1.41-.77-.37.62-.84.78-1.41.77,0,0,0,0,0,0Z"/>
        <path class="cls-44" d="m56.99,15.7c.21-.49.43-.44.95.23-.32-.08-.63-.16-.95-.23Z"/>
        <path class="cls-38" d="m31.58,20.68c.08-.08.16-.16.24-.24.02.07.05.15.06.22.06.38.75.54.39,1.07-.04.06-.23.09-.31.05-.51-.23-.32-.71-.37-1.1Z"/>
        <path class="cls-6" d="m30.62,19.49c-.15-.35-.51-.33-.79-.44-.37-.15-.36-.52-.38-.81-.03-.48.41-.35.7-.42.3.44.53.96,1.19.95-.04.44-.04.91-.71.71Z"/>
        <path class="cls-6" d="m51.53,33.5s.01-.08.03-.11c.28-.43.31-1.11,1.06-1.05.17.01.35.1.28.28-.23.63-.74.86-1.38.88h0Z"/>
        <path class="cls-43" d="m25.5,21.18c.24.02.48.05.45.38-.01.16-.11.31-.28.29-.25-.02-.43-.19-.47-.43-.04-.2.15-.22.3-.24Z"/>
        <path class="cls-43" d="m24.45,22.1c-.16-.08-.32-.16-.47-.24,0-.08,0-.16,0-.24.33,0,.67,0,.94.23-.16.08-.31.16-.47.24Z"/>
        <path class="cls-23" d="m24.21,26.62c-.08-.08-.16-.16-.24-.24.21-.07.5-.19.59.03.11.29-.22.15-.35.21Z"/>
      </g>
      <g>
        <path class="cls-61" d="m20.95,19.87c0-.26.18-.73.56-1.42.37-.69.81-1.4,1.31-2.14.5-.74.99-1.4,1.48-1.98s.84-.86,1.06-.86.56-.03,1-.08.89-.08,1.34-.08.84.04,1.2.11c.35.07.53.22.53.45,0,.11-.03.67-.08,1.67-.06,1-.15,2.28-.28,3.82-.13,1.54-.27,3.29-.42,5.23-.15,1.95-.3,3.94-.45,5.96-.15,2.02-.3,4.02-.45,5.99-.15,1.97-.29,3.73-.42,5.29-.13,1.56-.22,2.86-.28,3.9s-.08,1.65-.08,1.84c.04.37-.06.64-.28.81s-.47.28-.75.33-.55.08-.81.08h-.5c-.07,0-.19-.02-.33-.06-.15-.04-.29-.16-.42-.36-.13-.2-.26-.51-.39-.92-.13-.41-.21-.98-.25-1.73-.04-.48-.03-1.47.03-2.95.06-1.48.12-3.2.19-5.15.07-1.95.15-3.99.22-6.13.07-2.13.15-4.09.22-5.88s.12-3.26.14-4.43,0-1.75-.08-1.75c-.11,0-.25.08-.42.25s-.36.35-.58.56c-.22.2-.45.39-.7.56-.24.17-.47.25-.7.25-.3.04-.47-.08-.53-.36s-.08-.55-.08-.81Z"/>
        <path class="cls-61" d="m48.24,16.14c.26,0,.56.01.89.03.33.02.64.11.92.28s.52.46.72.86c.2.41.31,1.02.31,1.84,0,.22-.07,1.03-.19,2.42-.13,1.39-.29,3.09-.47,5.1-.19,2.01-.38,4.16-.58,6.46-.21,2.3-.4,4.45-.58,6.43-.19,1.99-.34,3.68-.47,5.07-.13,1.39-.19,2.18-.19,2.37,0,.59-.06,1.18-.19,1.75-.13.58-.57.86-1.31.86s-1.3-.17-1.67-.5-.56-.69-.56-1.06c0-.07.02-.55.06-1.42s.08-2,.14-3.37c.06-1.37.13-2.93.22-4.68s.18-3.53.25-5.35c-.89.11-1.9.25-3.04.42s-2.21.33-3.23.5-1.93.31-2.73.42-1.31.19-1.53.22c-.33.04-.7.08-1.09.14s-.74.08-1.06.08-.59-.04-.81-.11c-.22-.07-.33-.26-.33-.56,0-.19.11-.76.33-1.73.22-.96.51-2.12.86-3.48.35-1.36.72-2.81,1.11-4.37s.76-3.02,1.11-4.37c.35-1.36.64-2.51.86-3.45s.33-1.51.33-1.7c0-.44.2-.73.61-.86s.84-.19,1.28-.19c1.11,0,1.76.16,1.95.47s.28.81.28,1.48c0,.22-.13.76-.39,1.62-.26.85-.58,1.88-.95,3.06s-.78,2.45-1.23,3.79-.85,2.58-1.23,3.73c-.37,1.15-.69,2.14-.95,2.95-.26.82-.39,1.28-.39,1.39,1.22-.11,2.45-.24,3.67-.39,1.04-.11,2.15-.22,3.34-.33s2.27-.22,3.23-.33c.11-1.78.2-3.52.28-5.21.07-1.69.15-3.19.22-4.51s.13-2.4.17-3.23.06-1.29.06-1.36c0-.52.19-.84.58-.97.39-.13.84-.19,1.36-.19Z"/>
      </g>
    </g>
  </g>
</svg>